G04 #@! TF.FileFunction,Copper,L1,Top,Signal*
%FSLAX46Y46*%
G04 Gerber Fmt 4.6, Leading zero omitted, Abs format (unit mm)*
G04 Created by KiCad (PCBNEW 4.0.7-e2-6376~58~ubuntu16.04.1) date Thu Mar 22 01:15:54 2018*
%MOMM*%
%LPD*%
G01*
G04 APERTURE LIST*
%ADD10C,0.100000*%
%ADD11C,1.600000*%
%ADD12R,2.400000X1.650000*%
%ADD13R,0.350000X0.850000*%
%ADD14C,0.300000*%
%ADD15R,0.500000X0.900000*%
%ADD16R,0.900000X0.500000*%
%ADD17R,0.400000X0.600000*%
%ADD18R,0.800000X0.750000*%
%ADD19R,1.250000X1.000000*%
%ADD20C,4.500000*%
%ADD21C,3.300000*%
%ADD22R,6.470000X7.460000*%
%ADD23C,6.350000*%
%ADD24C,1.720000*%
%ADD25C,3.000000*%
%ADD26C,0.600000*%
%ADD27C,0.300000*%
%ADD28C,5.000000*%
%ADD29C,1.500000*%
%ADD30C,0.500000*%
%ADD31C,0.250000*%
%ADD32C,0.254000*%
G04 APERTURE END LIST*
D10*
D11*
X118500000Y-106000000D03*
X113500000Y-106000000D03*
X116000000Y-106000000D03*
D12*
X116250000Y-72500000D03*
D13*
X115275000Y-71025000D03*
X115925000Y-71025000D03*
X117225000Y-71025000D03*
X116575000Y-71025000D03*
X116575000Y-73975000D03*
X115275000Y-73975000D03*
X115925000Y-73975000D03*
X117225000Y-73975000D03*
D14*
X115500000Y-73000000D03*
X115500000Y-72000000D03*
X117000000Y-72000000D03*
X117000000Y-73000000D03*
X116250000Y-72500000D03*
D15*
X119250000Y-75750000D03*
X117750000Y-75750000D03*
D16*
X115500000Y-65250000D03*
X115500000Y-66750000D03*
X117250000Y-65250000D03*
X117250000Y-66750000D03*
X119250000Y-73500000D03*
X119250000Y-72000000D03*
D17*
X115700000Y-77500000D03*
X114800000Y-77500000D03*
X117700000Y-77500000D03*
X116800000Y-77500000D03*
D18*
X116500000Y-75750000D03*
X115000000Y-75750000D03*
D19*
X113500000Y-71500000D03*
X113500000Y-73500000D03*
D18*
X115500000Y-69250000D03*
X114000000Y-69250000D03*
X118750000Y-69250000D03*
X117250000Y-69250000D03*
D20*
X177000000Y-117600000D03*
X161000000Y-62400000D03*
D21*
X161000000Y-125820000D03*
D22*
X169000000Y-129670000D03*
X169000000Y-50330000D03*
D23*
X195810000Y-129920000D03*
X195810000Y-49910000D03*
X110080000Y-52450000D03*
X110080000Y-126110000D03*
D24*
X188190000Y-49910000D03*
X188190000Y-52450000D03*
X188190000Y-54990000D03*
X188190000Y-57530000D03*
X188190000Y-60070000D03*
X188190000Y-62610000D03*
X188190000Y-65150000D03*
X188190000Y-67690000D03*
X188190000Y-70230000D03*
X188190000Y-72770000D03*
X188190000Y-75310000D03*
X188190000Y-77850000D03*
X188190000Y-80390000D03*
X188190000Y-82930000D03*
X188190000Y-85470000D03*
X188190000Y-88010000D03*
X188190000Y-90550000D03*
X188190000Y-93090000D03*
X188190000Y-95630000D03*
X188190000Y-98170000D03*
X188190000Y-100710000D03*
X188190000Y-103250000D03*
X188190000Y-105790000D03*
X188190000Y-108330000D03*
X188190000Y-110870000D03*
X188190000Y-113410000D03*
X188190000Y-115950000D03*
X188190000Y-118490000D03*
X188190000Y-121030000D03*
X188190000Y-123570000D03*
X188190000Y-126110000D03*
X188190000Y-128650000D03*
X190730000Y-49910000D03*
X190730000Y-52450000D03*
X190730000Y-54990000D03*
X190730000Y-57530000D03*
X190730000Y-60070000D03*
X190730000Y-62610000D03*
X190730000Y-65150000D03*
X190730000Y-67690000D03*
X190730000Y-70230000D03*
X190730000Y-72770000D03*
X190730000Y-75310000D03*
X190730000Y-77850000D03*
X190730000Y-80390000D03*
X190730000Y-82930000D03*
X190730000Y-85470000D03*
X190730000Y-88010000D03*
X190730000Y-90550000D03*
X190730000Y-93090000D03*
X190730000Y-95630000D03*
X190730000Y-98170000D03*
X190730000Y-100710000D03*
X190730000Y-103250000D03*
X190730000Y-105790000D03*
X190730000Y-108330000D03*
X190730000Y-110870000D03*
X190730000Y-113410000D03*
X190730000Y-115950000D03*
X190730000Y-118490000D03*
X190730000Y-121030000D03*
X190730000Y-123570000D03*
X190730000Y-126110000D03*
X190730000Y-128650000D03*
D20*
X129000000Y-62400000D03*
X145000000Y-117600000D03*
D21*
X145000000Y-54180000D03*
D22*
X137000000Y-50330000D03*
X137000000Y-129670000D03*
D25*
X108000000Y-79000000D03*
X108000000Y-75000000D03*
X116000000Y-85000000D03*
X110300000Y-85000000D03*
D11*
X109500000Y-90000000D03*
X114500000Y-90000000D03*
X112000000Y-90000000D03*
X113500000Y-116000000D03*
X118500000Y-116000000D03*
X116000000Y-116000000D03*
D15*
X109550000Y-82000000D03*
X108050000Y-82000000D03*
D26*
X108000000Y-83200000D03*
X137000000Y-113000000D03*
X138000000Y-112000000D03*
X137000000Y-111000000D03*
X136000000Y-112000000D03*
X121000000Y-113000000D03*
X121000000Y-111000000D03*
X120000000Y-112000000D03*
X122000000Y-112000000D03*
X121000000Y-112000000D03*
X137000000Y-112000000D03*
X110000000Y-79000000D03*
X115000000Y-79000000D03*
X115500000Y-67900000D03*
X115900000Y-70125002D03*
X110000000Y-74000000D03*
X118000000Y-74000000D03*
D27*
X115500000Y-65250000D02*
X117250000Y-65250000D01*
X115500000Y-65250000D02*
X115500000Y-63595000D01*
X115500000Y-63595000D02*
X117095000Y-62000000D01*
X117250000Y-65250000D02*
X117250000Y-62155000D01*
X117250000Y-62155000D02*
X117095000Y-62000000D01*
D28*
X137000000Y-50330000D02*
X128765000Y-50330000D01*
X128765000Y-50330000D02*
X117095000Y-62000000D01*
X169000000Y-50330000D02*
X147588002Y-50330000D01*
X147588002Y-50330000D02*
X147088001Y-49829999D01*
X147088001Y-49829999D02*
X137500001Y-49829999D01*
X137500001Y-49829999D02*
X137000000Y-50330000D01*
D29*
X114500000Y-90000000D02*
X114500000Y-91131370D01*
X114500000Y-91131370D02*
X118500000Y-95131370D01*
X118500000Y-95131370D02*
X118500000Y-100000000D01*
X116000000Y-85000000D02*
X116000000Y-88500000D01*
X116000000Y-88500000D02*
X114500000Y-90000000D01*
X117549999Y-79450001D02*
X117549999Y-83450001D01*
X117549999Y-83450001D02*
X116000000Y-85000000D01*
D30*
X119250000Y-75750000D02*
X119250000Y-77750000D01*
X119250000Y-77750000D02*
X119000000Y-78000000D01*
D27*
X117700000Y-77500000D02*
X118500000Y-77500000D01*
X118500000Y-77500000D02*
X119000000Y-78000000D01*
D29*
X117549999Y-79450001D02*
X119000000Y-78000000D01*
X118500000Y-106000000D02*
X118500000Y-100000000D01*
X121000000Y-100000000D02*
X118500000Y-100000000D01*
D28*
X127000000Y-119175000D02*
X127000000Y-100000000D01*
X127000000Y-100000000D02*
X121000000Y-100000000D01*
X137000000Y-129670000D02*
X137000000Y-129175000D01*
X137000000Y-129175000D02*
X127000000Y-119175000D01*
D30*
X119250000Y-73500000D02*
X119250000Y-75750000D01*
D31*
X108050000Y-82000000D02*
X108050000Y-83150000D01*
X108050000Y-83150000D02*
X108000000Y-83200000D01*
D29*
X112000000Y-90000000D02*
X112000000Y-102000000D01*
X112000000Y-102000000D02*
X116000000Y-106000000D01*
X112000000Y-89000000D02*
X112000000Y-90000000D01*
D30*
X112000000Y-83000000D02*
X112000000Y-83300000D01*
X112000000Y-83300000D02*
X110300000Y-85000000D01*
D29*
X112000000Y-83000000D02*
X112000000Y-82000000D01*
X112000000Y-82000000D02*
X112000000Y-79000000D01*
D30*
X109550000Y-82000000D02*
X112000000Y-82000000D01*
D29*
X112000000Y-89000000D02*
X112000000Y-83000000D01*
D27*
X114800000Y-77500000D02*
X114300000Y-77500000D01*
X114300000Y-77500000D02*
X114000000Y-77200000D01*
X114000000Y-77200000D02*
X114000000Y-77000000D01*
D29*
X114000000Y-77000000D02*
X114000000Y-75000000D01*
X112000000Y-79000000D02*
X114000000Y-77000000D01*
X137000000Y-111000000D02*
X137000000Y-112000000D01*
X137000000Y-113000000D02*
X137000000Y-112000000D01*
X138000000Y-112000000D02*
X137000000Y-112000000D01*
X137000000Y-112000000D02*
X136000000Y-112000000D01*
X120000000Y-112000000D02*
X121000000Y-112000000D01*
X122000000Y-112000000D02*
X121000000Y-112000000D01*
X121000000Y-113000000D02*
X121000000Y-112000000D01*
X121000000Y-111000000D02*
X121000000Y-112000000D01*
X118000000Y-112000000D02*
X117500000Y-112000000D01*
X117500000Y-112000000D02*
X116000000Y-113500000D01*
D28*
X121000000Y-112000000D02*
X118000000Y-112000000D01*
X160060000Y-112000000D02*
X137000000Y-112000000D01*
X169000000Y-129670000D02*
X169000000Y-120940000D01*
X169000000Y-120940000D02*
X160060000Y-112000000D01*
D29*
X116000000Y-106000000D02*
X116000000Y-113500000D01*
X116000000Y-113500000D02*
X118500000Y-116000000D01*
D30*
X112300000Y-70050000D02*
X112300000Y-72425000D01*
X112300000Y-72425000D02*
X113375000Y-73500000D01*
X113375000Y-73500000D02*
X113500000Y-73500000D01*
X114000000Y-69250000D02*
X113100000Y-69250000D01*
X113100000Y-69250000D02*
X112300000Y-70050000D01*
D27*
X117225000Y-71025000D02*
X118275000Y-71025000D01*
X118275000Y-71025000D02*
X119250000Y-72000000D01*
X117225000Y-71025000D02*
X117225000Y-70775000D01*
X117225000Y-70775000D02*
X118750000Y-69250000D01*
D30*
X117250000Y-69250000D02*
X117250000Y-66750000D01*
X115500000Y-69250000D02*
X116600000Y-69250000D01*
X116600000Y-69250000D02*
X117250000Y-69250000D01*
D27*
X116575000Y-69275000D02*
X116600000Y-69250000D01*
X116575000Y-71025000D02*
X116575000Y-69275000D01*
X115275000Y-71025000D02*
X113975000Y-71025000D01*
X113975000Y-71025000D02*
X113500000Y-71500000D01*
X117750000Y-75750000D02*
X116500000Y-75750000D01*
X116575000Y-73975000D02*
X116575000Y-75675000D01*
X116575000Y-75675000D02*
X116500000Y-75750000D01*
D31*
X110000000Y-79000000D02*
X108000000Y-79000000D01*
X115700000Y-77500000D02*
X115700000Y-78300000D01*
X115700000Y-78300000D02*
X115000000Y-79000000D01*
X115700000Y-77500000D02*
X116800000Y-77500000D01*
X115925000Y-73975000D02*
X115925000Y-74964998D01*
X115925000Y-74964998D02*
X115725001Y-75164997D01*
X115725001Y-75164997D02*
X115725001Y-76924999D01*
X115725001Y-76924999D02*
X115700000Y-76950000D01*
X115700000Y-76950000D02*
X115700000Y-77500000D01*
D27*
X115500000Y-67900000D02*
X115500000Y-66750000D01*
X115925000Y-71025000D02*
X115925000Y-70150002D01*
X115925000Y-70150002D02*
X115900000Y-70125002D01*
D31*
X110000000Y-74000000D02*
X109000000Y-74000000D01*
X109000000Y-74000000D02*
X108000000Y-75000000D01*
X117225000Y-73975000D02*
X117975000Y-73975000D01*
X117975000Y-73975000D02*
X118000000Y-74000000D01*
D29*
X109500000Y-90000000D02*
X109500000Y-102000000D01*
X109500000Y-102000000D02*
X113500000Y-106000000D01*
X113500000Y-106000000D02*
X113500000Y-116000000D01*
D31*
G36*
X114675000Y-73551776D02*
X114675000Y-73743750D01*
X114781250Y-73850000D01*
X115187500Y-73850000D01*
X115187500Y-73830000D01*
X115316674Y-73830000D01*
X115316674Y-74400000D01*
X115346309Y-74557496D01*
X115362500Y-74582657D01*
X115362500Y-74718750D01*
X115375000Y-74731250D01*
X115375000Y-74737180D01*
X115336092Y-74776088D01*
X115216867Y-74954521D01*
X115214418Y-74966832D01*
X115125000Y-75056250D01*
X115125000Y-75625000D01*
X115145000Y-75625000D01*
X115145000Y-75875000D01*
X115125000Y-75875000D01*
X115125000Y-75895000D01*
X114875000Y-75895000D01*
X114875000Y-75875000D01*
X114855000Y-75875000D01*
X114855000Y-75625000D01*
X114875000Y-75625000D01*
X114875000Y-75056250D01*
X114768750Y-74950000D01*
X114515462Y-74950000D01*
X114359257Y-75014702D01*
X114239702Y-75134257D01*
X114175000Y-75290462D01*
X114175000Y-75498224D01*
X113101776Y-74425000D01*
X113268750Y-74425000D01*
X113375000Y-74318750D01*
X113375000Y-73625000D01*
X113625000Y-73625000D01*
X113625000Y-74318750D01*
X113731250Y-74425000D01*
X114209538Y-74425000D01*
X114365743Y-74360298D01*
X114485298Y-74240743D01*
X114499585Y-74206250D01*
X114675000Y-74206250D01*
X114675000Y-74484538D01*
X114739702Y-74640743D01*
X114859257Y-74760298D01*
X115015462Y-74825000D01*
X115081250Y-74825000D01*
X115187500Y-74718750D01*
X115187500Y-74100000D01*
X114781250Y-74100000D01*
X114675000Y-74206250D01*
X114499585Y-74206250D01*
X114550000Y-74084538D01*
X114550000Y-73731250D01*
X114443750Y-73625000D01*
X113625000Y-73625000D01*
X113375000Y-73625000D01*
X113355000Y-73625000D01*
X113355000Y-73375000D01*
X113375000Y-73375000D01*
X113375000Y-73355000D01*
X113625000Y-73355000D01*
X113625000Y-73375000D01*
X114443750Y-73375000D01*
X114470987Y-73347763D01*
X114675000Y-73551776D01*
X114675000Y-73551776D01*
G37*
X114675000Y-73551776D02*
X114675000Y-73743750D01*
X114781250Y-73850000D01*
X115187500Y-73850000D01*
X115187500Y-73830000D01*
X115316674Y-73830000D01*
X115316674Y-74400000D01*
X115346309Y-74557496D01*
X115362500Y-74582657D01*
X115362500Y-74718750D01*
X115375000Y-74731250D01*
X115375000Y-74737180D01*
X115336092Y-74776088D01*
X115216867Y-74954521D01*
X115214418Y-74966832D01*
X115125000Y-75056250D01*
X115125000Y-75625000D01*
X115145000Y-75625000D01*
X115145000Y-75875000D01*
X115125000Y-75875000D01*
X115125000Y-75895000D01*
X114875000Y-75895000D01*
X114875000Y-75875000D01*
X114855000Y-75875000D01*
X114855000Y-75625000D01*
X114875000Y-75625000D01*
X114875000Y-75056250D01*
X114768750Y-74950000D01*
X114515462Y-74950000D01*
X114359257Y-75014702D01*
X114239702Y-75134257D01*
X114175000Y-75290462D01*
X114175000Y-75498224D01*
X113101776Y-74425000D01*
X113268750Y-74425000D01*
X113375000Y-74318750D01*
X113375000Y-73625000D01*
X113625000Y-73625000D01*
X113625000Y-74318750D01*
X113731250Y-74425000D01*
X114209538Y-74425000D01*
X114365743Y-74360298D01*
X114485298Y-74240743D01*
X114499585Y-74206250D01*
X114675000Y-74206250D01*
X114675000Y-74484538D01*
X114739702Y-74640743D01*
X114859257Y-74760298D01*
X115015462Y-74825000D01*
X115081250Y-74825000D01*
X115187500Y-74718750D01*
X115187500Y-74100000D01*
X114781250Y-74100000D01*
X114675000Y-74206250D01*
X114499585Y-74206250D01*
X114550000Y-74084538D01*
X114550000Y-73731250D01*
X114443750Y-73625000D01*
X113625000Y-73625000D01*
X113375000Y-73625000D01*
X113355000Y-73625000D01*
X113355000Y-73375000D01*
X113375000Y-73375000D01*
X113375000Y-73355000D01*
X113625000Y-73355000D01*
X113625000Y-73375000D01*
X114443750Y-73375000D01*
X114470987Y-73347763D01*
X114675000Y-73551776D01*
D32*
G36*
X200388000Y-134498000D02*
X105502000Y-134498000D01*
X105502000Y-128832875D01*
X107536730Y-128832875D01*
X107900630Y-129325710D01*
X109297124Y-129914937D01*
X110812803Y-129924898D01*
X112216920Y-129354074D01*
X112259370Y-129325710D01*
X112623270Y-128832875D01*
X110080000Y-126289605D01*
X107536730Y-128832875D01*
X105502000Y-128832875D01*
X105502000Y-126842803D01*
X106265102Y-126842803D01*
X106835926Y-128246920D01*
X106864290Y-128289370D01*
X107357125Y-128653270D01*
X109900395Y-126110000D01*
X110259605Y-126110000D01*
X112802875Y-128653270D01*
X113295710Y-128289370D01*
X113884937Y-126892876D01*
X113894898Y-125377197D01*
X113324074Y-123973080D01*
X113295710Y-123930630D01*
X112802875Y-123566730D01*
X110259605Y-126110000D01*
X109900395Y-126110000D01*
X107357125Y-123566730D01*
X106864290Y-123930630D01*
X106275063Y-125327124D01*
X106265102Y-126842803D01*
X105502000Y-126842803D01*
X105502000Y-123387125D01*
X107536730Y-123387125D01*
X110080000Y-125930395D01*
X112623270Y-123387125D01*
X112259370Y-122894290D01*
X110862876Y-122305063D01*
X109347197Y-122295102D01*
X107943080Y-122865926D01*
X107900630Y-122894290D01*
X107536730Y-123387125D01*
X105502000Y-123387125D01*
X105502000Y-82285750D01*
X107165000Y-82285750D01*
X107165000Y-82576310D01*
X107261673Y-82809699D01*
X107440302Y-82988327D01*
X107673691Y-83085000D01*
X107766250Y-83085000D01*
X107925000Y-82926250D01*
X107925000Y-82127000D01*
X107323750Y-82127000D01*
X107165000Y-82285750D01*
X105502000Y-82285750D01*
X105502000Y-79381622D01*
X106072666Y-79381622D01*
X106365416Y-80090132D01*
X106907017Y-80632678D01*
X107615014Y-80926665D01*
X107645465Y-80926692D01*
X107440302Y-81011673D01*
X107261673Y-81190301D01*
X107165000Y-81423690D01*
X107165000Y-81714250D01*
X107323750Y-81873000D01*
X107925000Y-81873000D01*
X107925000Y-81853000D01*
X108175000Y-81853000D01*
X108175000Y-81873000D01*
X108197000Y-81873000D01*
X108197000Y-82127000D01*
X108175000Y-82127000D01*
X108175000Y-82926250D01*
X108333750Y-83085000D01*
X108426309Y-83085000D01*
X108659698Y-82988327D01*
X108838327Y-82809699D01*
X108911058Y-82634110D01*
X108987927Y-82753567D01*
X109130619Y-82851064D01*
X109300000Y-82885365D01*
X109800000Y-82885365D01*
X109958237Y-82855591D01*
X110103567Y-82762073D01*
X110161695Y-82677000D01*
X110823000Y-82677000D01*
X110823000Y-83130644D01*
X110684986Y-83073335D01*
X109918378Y-83072666D01*
X109209868Y-83365416D01*
X108667322Y-83907017D01*
X108373335Y-84615014D01*
X108372666Y-85381622D01*
X108665416Y-86090132D01*
X109207017Y-86632678D01*
X109915014Y-86926665D01*
X110681622Y-86927334D01*
X110823000Y-86868918D01*
X110823000Y-89634966D01*
X110773214Y-89754864D01*
X110772788Y-90242995D01*
X110823000Y-90364517D01*
X110823000Y-101658470D01*
X110677000Y-101512470D01*
X110677000Y-90365034D01*
X110726786Y-90245136D01*
X110727212Y-89757005D01*
X110540806Y-89305869D01*
X110195947Y-88960407D01*
X109745136Y-88773214D01*
X109257005Y-88772788D01*
X108805869Y-88959194D01*
X108460407Y-89304053D01*
X108273214Y-89754864D01*
X108272788Y-90242995D01*
X108323000Y-90364517D01*
X108323000Y-102000000D01*
X108412594Y-102450419D01*
X108667735Y-102832265D01*
X112323000Y-106487530D01*
X112323000Y-115634966D01*
X112273214Y-115754864D01*
X112272788Y-116242995D01*
X112459194Y-116694131D01*
X112804053Y-117039593D01*
X113254864Y-117226786D01*
X113742995Y-117227212D01*
X114194131Y-117040806D01*
X114539593Y-116695947D01*
X114726786Y-116245136D01*
X114727212Y-115757005D01*
X114677000Y-115635483D01*
X114677000Y-106365034D01*
X114683896Y-106348426D01*
X114823000Y-106487530D01*
X114823000Y-113500000D01*
X114912594Y-113950419D01*
X115167735Y-114332265D01*
X115651749Y-114816279D01*
X115305869Y-114959194D01*
X114960407Y-115304053D01*
X114773214Y-115754864D01*
X114772788Y-116242995D01*
X114959194Y-116694131D01*
X115304053Y-117039593D01*
X115754864Y-117226786D01*
X116242995Y-117227212D01*
X116694131Y-117040806D01*
X117039593Y-116695947D01*
X117183896Y-116348426D01*
X117409618Y-116574148D01*
X117459194Y-116694131D01*
X117804053Y-117039593D01*
X118254864Y-117226786D01*
X118742995Y-117227212D01*
X119194131Y-117040806D01*
X119539593Y-116695947D01*
X119726786Y-116245136D01*
X119727212Y-115757005D01*
X119540806Y-115305869D01*
X119195947Y-114960407D01*
X119115494Y-114927000D01*
X121000000Y-114927000D01*
X122120114Y-114704195D01*
X123069702Y-114069702D01*
X123704195Y-113120114D01*
X123927000Y-112000000D01*
X123704195Y-110879886D01*
X123069702Y-109930298D01*
X122120114Y-109295805D01*
X121000000Y-109073000D01*
X118000000Y-109073000D01*
X117177000Y-109236705D01*
X117177000Y-106365034D01*
X117226786Y-106245136D01*
X117227212Y-105757005D01*
X117040806Y-105305869D01*
X116695947Y-104960407D01*
X116574513Y-104909983D01*
X113177000Y-101512470D01*
X113177000Y-90365034D01*
X113226786Y-90245136D01*
X113227212Y-89757005D01*
X113177000Y-89635483D01*
X113177000Y-79487530D01*
X114457934Y-78206596D01*
X114600000Y-78235365D01*
X114983989Y-78235365D01*
X114946401Y-78272953D01*
X114856025Y-78272874D01*
X114588725Y-78383320D01*
X114384039Y-78587650D01*
X114273126Y-78854756D01*
X114272874Y-79143975D01*
X114383320Y-79411275D01*
X114587650Y-79615961D01*
X114854756Y-79726874D01*
X115143975Y-79727126D01*
X115411275Y-79616680D01*
X115615961Y-79412350D01*
X115726874Y-79145244D01*
X115726954Y-79053692D01*
X116090323Y-78690323D01*
X116158927Y-78587650D01*
X116209982Y-78511241D01*
X116252000Y-78300000D01*
X116252000Y-78052000D01*
X116254744Y-78052000D01*
X116287927Y-78103567D01*
X116430619Y-78201064D01*
X116600000Y-78235365D01*
X117000000Y-78235365D01*
X117123306Y-78212164D01*
X116717734Y-78617736D01*
X116462593Y-78999582D01*
X116433619Y-79145244D01*
X116372999Y-79450001D01*
X116372999Y-82962472D01*
X116262243Y-83073228D01*
X115618378Y-83072666D01*
X114909868Y-83365416D01*
X114367322Y-83907017D01*
X114073335Y-84615014D01*
X114072666Y-85381622D01*
X114365416Y-86090132D01*
X114823000Y-86548514D01*
X114823000Y-88012471D01*
X113925852Y-88909618D01*
X113805869Y-88959194D01*
X113460407Y-89304053D01*
X113273214Y-89754864D01*
X113272788Y-90242995D01*
X113323000Y-90364517D01*
X113323000Y-91131370D01*
X113412594Y-91581789D01*
X113667735Y-91963635D01*
X117323000Y-95618900D01*
X117323000Y-105634966D01*
X117273214Y-105754864D01*
X117272788Y-106242995D01*
X117459194Y-106694131D01*
X117804053Y-107039593D01*
X118254864Y-107226786D01*
X118742995Y-107227212D01*
X119194131Y-107040806D01*
X119539593Y-106695947D01*
X119726786Y-106245136D01*
X119727212Y-105757005D01*
X119677000Y-105635483D01*
X119677000Y-102568631D01*
X119879886Y-102704195D01*
X121000000Y-102927000D01*
X124073000Y-102927000D01*
X124073000Y-119174995D01*
X124072999Y-119175000D01*
X124295805Y-120295114D01*
X124930298Y-121244702D01*
X133329635Y-129644038D01*
X133329635Y-133400000D01*
X133359409Y-133558237D01*
X133452927Y-133703567D01*
X133595619Y-133801064D01*
X133765000Y-133835365D01*
X140235000Y-133835365D01*
X140393237Y-133805591D01*
X140538567Y-133712073D01*
X140636064Y-133569381D01*
X140670365Y-133400000D01*
X140670365Y-126231328D01*
X158922640Y-126231328D01*
X159238178Y-126994989D01*
X159821938Y-127579768D01*
X160585047Y-127896639D01*
X161411328Y-127897360D01*
X162174989Y-127581822D01*
X162759768Y-126998062D01*
X163076639Y-126234953D01*
X163077360Y-125408672D01*
X162761822Y-124645011D01*
X162178062Y-124060232D01*
X161414953Y-123743361D01*
X160588672Y-123742640D01*
X159825011Y-124058178D01*
X159240232Y-124641938D01*
X158923361Y-125405047D01*
X158922640Y-126231328D01*
X140670365Y-126231328D01*
X140670365Y-125940000D01*
X140640591Y-125781763D01*
X140547073Y-125636433D01*
X140404381Y-125538936D01*
X140235000Y-125504635D01*
X137469038Y-125504635D01*
X129927000Y-117962596D01*
X129927000Y-112000000D01*
X134073000Y-112000000D01*
X134295805Y-113120114D01*
X134930298Y-114069702D01*
X135879886Y-114704195D01*
X137000000Y-114927000D01*
X144459044Y-114927000D01*
X143485582Y-115329226D01*
X142731873Y-116081621D01*
X142323465Y-117065176D01*
X142322536Y-118130152D01*
X142729226Y-119114418D01*
X143481621Y-119868127D01*
X144465176Y-120276535D01*
X145530152Y-120277464D01*
X146514418Y-119870774D01*
X147268127Y-119118379D01*
X147676535Y-118134824D01*
X147677464Y-117069848D01*
X147270774Y-116085582D01*
X146518379Y-115331873D01*
X145543337Y-114927000D01*
X158847596Y-114927000D01*
X166073000Y-122152403D01*
X166073000Y-125504635D01*
X165765000Y-125504635D01*
X165606763Y-125534409D01*
X165461433Y-125627927D01*
X165363936Y-125770619D01*
X165329635Y-125940000D01*
X165329635Y-133400000D01*
X165359409Y-133558237D01*
X165452927Y-133703567D01*
X165595619Y-133801064D01*
X165765000Y-133835365D01*
X172235000Y-133835365D01*
X172393237Y-133805591D01*
X172538567Y-133712073D01*
X172636064Y-133569381D01*
X172670365Y-133400000D01*
X172670365Y-132642875D01*
X193266730Y-132642875D01*
X193630630Y-133135710D01*
X195027124Y-133724937D01*
X196542803Y-133734898D01*
X197946920Y-133164074D01*
X197989370Y-133135710D01*
X198353270Y-132642875D01*
X195810000Y-130099605D01*
X193266730Y-132642875D01*
X172670365Y-132642875D01*
X172670365Y-130652803D01*
X191995102Y-130652803D01*
X192565926Y-132056920D01*
X192594290Y-132099370D01*
X193087125Y-132463270D01*
X195630395Y-129920000D01*
X195989605Y-129920000D01*
X198532875Y-132463270D01*
X199025710Y-132099370D01*
X199614937Y-130702876D01*
X199624898Y-129187197D01*
X199054074Y-127783080D01*
X199025710Y-127740630D01*
X198532875Y-127376730D01*
X195989605Y-129920000D01*
X195630395Y-129920000D01*
X193087125Y-127376730D01*
X192594290Y-127740630D01*
X192005063Y-129137124D01*
X191995102Y-130652803D01*
X172670365Y-130652803D01*
X172670365Y-129701199D01*
X187318406Y-129701199D01*
X187399906Y-129953537D01*
X187958890Y-130156667D01*
X188553059Y-130130421D01*
X188980094Y-129953537D01*
X189061594Y-129701199D01*
X188190000Y-128829605D01*
X187318406Y-129701199D01*
X172670365Y-129701199D01*
X172670365Y-128418890D01*
X186683333Y-128418890D01*
X186709579Y-129013059D01*
X186886463Y-129440094D01*
X187138801Y-129521594D01*
X188010395Y-128650000D01*
X187138801Y-127778406D01*
X186886463Y-127859906D01*
X186683333Y-128418890D01*
X172670365Y-128418890D01*
X172670365Y-125940000D01*
X172640591Y-125781763D01*
X172547073Y-125636433D01*
X172404381Y-125538936D01*
X172235000Y-125504635D01*
X171927000Y-125504635D01*
X171927000Y-120940000D01*
X171704195Y-119819886D01*
X171704195Y-119819885D01*
X171450053Y-119439534D01*
X171069702Y-118870298D01*
X171069699Y-118870296D01*
X170329556Y-118130152D01*
X174322536Y-118130152D01*
X174729226Y-119114418D01*
X175481621Y-119868127D01*
X176465176Y-120276535D01*
X177530152Y-120277464D01*
X178514418Y-119870774D01*
X179268127Y-119118379D01*
X179676535Y-118134824D01*
X179677464Y-117069848D01*
X179270774Y-116085582D01*
X178518379Y-115331873D01*
X177534824Y-114923465D01*
X176469848Y-114922536D01*
X175485582Y-115329226D01*
X174731873Y-116081621D01*
X174323465Y-117065176D01*
X174322536Y-118130152D01*
X170329556Y-118130152D01*
X162129702Y-109930298D01*
X161180114Y-109295805D01*
X160060000Y-109072999D01*
X160059995Y-109073000D01*
X137000000Y-109073000D01*
X135879886Y-109295805D01*
X134930298Y-109930298D01*
X134295805Y-110879886D01*
X134073000Y-112000000D01*
X129927000Y-112000000D01*
X129927000Y-100000000D01*
X129704195Y-98879886D01*
X129069702Y-97930298D01*
X128120114Y-97295805D01*
X127000000Y-97073000D01*
X121000000Y-97073000D01*
X119879886Y-97295805D01*
X119677000Y-97431369D01*
X119677000Y-95131370D01*
X119587406Y-94680951D01*
X119332265Y-94299105D01*
X115677000Y-90643840D01*
X115677000Y-90579662D01*
X118072493Y-90579662D01*
X118517164Y-91655846D01*
X119339823Y-92479943D01*
X120415229Y-92926490D01*
X121579662Y-92927507D01*
X122655846Y-92482836D01*
X123479943Y-91660177D01*
X123926490Y-90584771D01*
X123926494Y-90579662D01*
X150072493Y-90579662D01*
X150517164Y-91655846D01*
X151339823Y-92479943D01*
X152415229Y-92926490D01*
X153579662Y-92927507D01*
X154655846Y-92482836D01*
X155479943Y-91660177D01*
X155926490Y-90584771D01*
X155926494Y-90579662D01*
X180072493Y-90579662D01*
X180517164Y-91655846D01*
X181339823Y-92479943D01*
X182415229Y-92926490D01*
X183579662Y-92927507D01*
X184655846Y-92482836D01*
X185479943Y-91660177D01*
X185926490Y-90584771D01*
X185927507Y-89420338D01*
X185482836Y-88344154D01*
X184660177Y-87520057D01*
X183584771Y-87073510D01*
X182420338Y-87072493D01*
X181344154Y-87517164D01*
X180520057Y-88339823D01*
X180073510Y-89415229D01*
X180072493Y-90579662D01*
X155926494Y-90579662D01*
X155927507Y-89420338D01*
X155482836Y-88344154D01*
X154660177Y-87520057D01*
X153584771Y-87073510D01*
X152420338Y-87072493D01*
X151344154Y-87517164D01*
X150520057Y-88339823D01*
X150073510Y-89415229D01*
X150072493Y-90579662D01*
X123926494Y-90579662D01*
X123927507Y-89420338D01*
X123482836Y-88344154D01*
X122660177Y-87520057D01*
X121584771Y-87073510D01*
X120420338Y-87072493D01*
X119344154Y-87517164D01*
X118520057Y-88339823D01*
X118073510Y-89415229D01*
X118072493Y-90579662D01*
X115677000Y-90579662D01*
X115677000Y-90487530D01*
X116832262Y-89332267D01*
X116832265Y-89332265D01*
X116987172Y-89100429D01*
X117087406Y-88950419D01*
X117177000Y-88500000D01*
X117177000Y-86547867D01*
X117632678Y-86092983D01*
X117926665Y-85384986D01*
X117927230Y-84737299D01*
X118382261Y-84282268D01*
X118382264Y-84282266D01*
X118637405Y-83900419D01*
X118652805Y-83823000D01*
X118727000Y-83450001D01*
X118726999Y-83449996D01*
X118726999Y-79937531D01*
X119832265Y-78832265D01*
X120087406Y-78450419D01*
X120177000Y-78000000D01*
X120087406Y-77549582D01*
X119927000Y-77309517D01*
X119927000Y-76241307D01*
X119935365Y-76200000D01*
X119935365Y-75300000D01*
X119927000Y-75255543D01*
X119927000Y-74111343D01*
X120003567Y-74062073D01*
X120101064Y-73919381D01*
X120135365Y-73750000D01*
X120135365Y-73250000D01*
X120105591Y-73091763D01*
X120012073Y-72946433D01*
X119869381Y-72848936D01*
X119700000Y-72814635D01*
X118800000Y-72814635D01*
X118641763Y-72844409D01*
X118496433Y-72937927D01*
X118398936Y-73080619D01*
X118364635Y-73250000D01*
X118364635Y-73364226D01*
X118145244Y-73273126D01*
X117885365Y-73272900D01*
X117885365Y-71675000D01*
X117871629Y-71602000D01*
X118035998Y-71602000D01*
X118364635Y-71930636D01*
X118364635Y-72250000D01*
X118394409Y-72408237D01*
X118487927Y-72553567D01*
X118630619Y-72651064D01*
X118800000Y-72685365D01*
X119700000Y-72685365D01*
X119858237Y-72655591D01*
X120003567Y-72562073D01*
X120101064Y-72419381D01*
X120135365Y-72250000D01*
X120135365Y-71750000D01*
X120105591Y-71591763D01*
X120012073Y-71446433D01*
X119869381Y-71348936D01*
X119700000Y-71314635D01*
X119380636Y-71314635D01*
X118683001Y-70616999D01*
X118495808Y-70491922D01*
X118352572Y-70463430D01*
X118755636Y-70060365D01*
X119150000Y-70060365D01*
X119308237Y-70030591D01*
X119453567Y-69937073D01*
X119551064Y-69794381D01*
X119585365Y-69625000D01*
X119585365Y-68875000D01*
X119555591Y-68716763D01*
X119462073Y-68571433D01*
X119319381Y-68473936D01*
X119150000Y-68439635D01*
X118350000Y-68439635D01*
X118191763Y-68469409D01*
X118046433Y-68562927D01*
X118000169Y-68630636D01*
X117962073Y-68571433D01*
X117927000Y-68547469D01*
X117927000Y-67361343D01*
X118003567Y-67312073D01*
X118101064Y-67169381D01*
X118135365Y-67000000D01*
X118135365Y-66500000D01*
X118105591Y-66341763D01*
X118012073Y-66196433D01*
X117869381Y-66098936D01*
X117700000Y-66064635D01*
X116800000Y-66064635D01*
X116641763Y-66094409D01*
X116496433Y-66187927D01*
X116398936Y-66330619D01*
X116375381Y-66446937D01*
X116355591Y-66341763D01*
X116262073Y-66196433D01*
X116119381Y-66098936D01*
X115950000Y-66064635D01*
X115050000Y-66064635D01*
X114891763Y-66094409D01*
X114746433Y-66187927D01*
X114648936Y-66330619D01*
X114614635Y-66500000D01*
X114614635Y-67000000D01*
X114644409Y-67158237D01*
X114737927Y-67303567D01*
X114880619Y-67401064D01*
X114923000Y-67409646D01*
X114923000Y-67448757D01*
X114884039Y-67487650D01*
X114773126Y-67754756D01*
X114772874Y-68043975D01*
X114883320Y-68311275D01*
X115025458Y-68453661D01*
X114941763Y-68469409D01*
X114796433Y-68562927D01*
X114750169Y-68630636D01*
X114712073Y-68571433D01*
X114569381Y-68473936D01*
X114400000Y-68439635D01*
X113600000Y-68439635D01*
X113441763Y-68469409D01*
X113296433Y-68562927D01*
X113289550Y-68573000D01*
X113100000Y-68573000D01*
X112840923Y-68624534D01*
X112768389Y-68673000D01*
X112621289Y-68771289D01*
X111821289Y-69571289D01*
X111674534Y-69790923D01*
X111623000Y-70050000D01*
X111623000Y-72425000D01*
X111674534Y-72684077D01*
X111801794Y-72874534D01*
X111821289Y-72903711D01*
X112439635Y-73522058D01*
X112439635Y-74000000D01*
X112469409Y-74158237D01*
X112473000Y-74163818D01*
X112473000Y-74400000D01*
X112504384Y-74560677D01*
X112598065Y-74701935D01*
X112835133Y-74939003D01*
X112823000Y-75000000D01*
X112823000Y-76512470D01*
X111167735Y-78167735D01*
X110912594Y-78549581D01*
X110834849Y-78940429D01*
X110823000Y-79000000D01*
X110823000Y-81323000D01*
X110161343Y-81323000D01*
X110112073Y-81246433D01*
X109969381Y-81148936D01*
X109800000Y-81114635D01*
X109300000Y-81114635D01*
X109141763Y-81144409D01*
X108996433Y-81237927D01*
X108910281Y-81364014D01*
X108838327Y-81190301D01*
X108659698Y-81011673D01*
X108426309Y-80915000D01*
X108411473Y-80915000D01*
X109090132Y-80634584D01*
X109632678Y-80092983D01*
X109795003Y-79702062D01*
X109854756Y-79726874D01*
X110143975Y-79727126D01*
X110411275Y-79616680D01*
X110615961Y-79412350D01*
X110726874Y-79145244D01*
X110727126Y-78856025D01*
X110616680Y-78588725D01*
X110412350Y-78384039D01*
X110145244Y-78273126D01*
X109856025Y-78272874D01*
X109794994Y-78298091D01*
X109634584Y-77909868D01*
X109092983Y-77367322D01*
X108384986Y-77073335D01*
X107618378Y-77072666D01*
X106909868Y-77365416D01*
X106367322Y-77907017D01*
X106073335Y-78615014D01*
X106072666Y-79381622D01*
X105502000Y-79381622D01*
X105502000Y-75381622D01*
X106072666Y-75381622D01*
X106365416Y-76090132D01*
X106907017Y-76632678D01*
X107615014Y-76926665D01*
X108381622Y-76927334D01*
X109090132Y-76634584D01*
X109632678Y-76092983D01*
X109926665Y-75384986D01*
X109927239Y-74726937D01*
X110143975Y-74727126D01*
X110411275Y-74616680D01*
X110615961Y-74412350D01*
X110726874Y-74145244D01*
X110727126Y-73856025D01*
X110616680Y-73588725D01*
X110412350Y-73384039D01*
X110145244Y-73273126D01*
X109856025Y-73272874D01*
X109588725Y-73383320D01*
X109523932Y-73448000D01*
X109173520Y-73448000D01*
X109092983Y-73367322D01*
X108384986Y-73073335D01*
X107618378Y-73072666D01*
X106909868Y-73365416D01*
X106367322Y-73907017D01*
X106073335Y-74615014D01*
X106072666Y-75381622D01*
X105502000Y-75381622D01*
X105502000Y-62000000D01*
X114167999Y-62000000D01*
X114390805Y-63120114D01*
X114923000Y-63916602D01*
X114923000Y-64588531D01*
X114891763Y-64594409D01*
X114746433Y-64687927D01*
X114648936Y-64830619D01*
X114614635Y-65000000D01*
X114614635Y-65500000D01*
X114644409Y-65658237D01*
X114737927Y-65803567D01*
X114880619Y-65901064D01*
X115050000Y-65935365D01*
X115950000Y-65935365D01*
X116108237Y-65905591D01*
X116230370Y-65827000D01*
X116522222Y-65827000D01*
X116630619Y-65901064D01*
X116800000Y-65935365D01*
X117700000Y-65935365D01*
X117858237Y-65905591D01*
X118003567Y-65812073D01*
X118101064Y-65669381D01*
X118135365Y-65500000D01*
X118135365Y-65000000D01*
X118105591Y-64841763D01*
X118039541Y-64739119D01*
X118215114Y-64704195D01*
X119164702Y-64069702D01*
X120304251Y-62930152D01*
X126322536Y-62930152D01*
X126729226Y-63914418D01*
X127481621Y-64668127D01*
X128465176Y-65076535D01*
X129530152Y-65077464D01*
X130514418Y-64670774D01*
X131268127Y-63918379D01*
X131676535Y-62934824D01*
X131676539Y-62930152D01*
X158322536Y-62930152D01*
X158729226Y-63914418D01*
X159481621Y-64668127D01*
X160465176Y-65076535D01*
X161530152Y-65077464D01*
X162514418Y-64670774D01*
X163268127Y-63918379D01*
X163676535Y-62934824D01*
X163677464Y-61869848D01*
X163270774Y-60885582D01*
X162518379Y-60131873D01*
X161534824Y-59723465D01*
X160469848Y-59722536D01*
X159485582Y-60129226D01*
X158731873Y-60881621D01*
X158323465Y-61865176D01*
X158322536Y-62930152D01*
X131676539Y-62930152D01*
X131677464Y-61869848D01*
X131270774Y-60885582D01*
X130518379Y-60131873D01*
X129534824Y-59723465D01*
X128469848Y-59722536D01*
X127485582Y-60129226D01*
X126731873Y-60881621D01*
X126323465Y-61865176D01*
X126322536Y-62930152D01*
X120304251Y-62930152D01*
X129977403Y-53257000D01*
X133329635Y-53257000D01*
X133329635Y-54060000D01*
X133359409Y-54218237D01*
X133452927Y-54363567D01*
X133595619Y-54461064D01*
X133765000Y-54495365D01*
X140235000Y-54495365D01*
X140393237Y-54465591D01*
X140538567Y-54372073D01*
X140636064Y-54229381D01*
X140670365Y-54060000D01*
X140670365Y-52756999D01*
X143485599Y-52756999D01*
X143240232Y-53001938D01*
X142923361Y-53765047D01*
X142922640Y-54591328D01*
X143238178Y-55354989D01*
X143821938Y-55939768D01*
X144585047Y-56256639D01*
X145411328Y-56257360D01*
X146174989Y-55941822D01*
X146759768Y-55358062D01*
X147076639Y-54594953D01*
X147077360Y-53768672D01*
X146801282Y-53100512D01*
X147588002Y-53257001D01*
X147588007Y-53257000D01*
X165329635Y-53257000D01*
X165329635Y-54060000D01*
X165359409Y-54218237D01*
X165452927Y-54363567D01*
X165595619Y-54461064D01*
X165765000Y-54495365D01*
X172235000Y-54495365D01*
X172393237Y-54465591D01*
X172538567Y-54372073D01*
X172636064Y-54229381D01*
X172670365Y-54060000D01*
X172670365Y-52704877D01*
X186902777Y-52704877D01*
X187098298Y-53178075D01*
X187460021Y-53540429D01*
X187892957Y-53720200D01*
X187461925Y-53898298D01*
X187099571Y-54260021D01*
X186903224Y-54732877D01*
X186902777Y-55244877D01*
X187098298Y-55718075D01*
X187460021Y-56080429D01*
X187892957Y-56260200D01*
X187461925Y-56438298D01*
X187099571Y-56800021D01*
X186903224Y-57272877D01*
X186902777Y-57784877D01*
X187098298Y-58258075D01*
X187460021Y-58620429D01*
X187892957Y-58800200D01*
X187461925Y-58978298D01*
X187099571Y-59340021D01*
X186903224Y-59812877D01*
X186902777Y-60324877D01*
X187098298Y-60798075D01*
X187460021Y-61160429D01*
X187892957Y-61340200D01*
X187461925Y-61518298D01*
X187099571Y-61880021D01*
X186903224Y-62352877D01*
X186902777Y-62864877D01*
X187098298Y-63338075D01*
X187460021Y-63700429D01*
X187892957Y-63880200D01*
X187461925Y-64058298D01*
X187099571Y-64420021D01*
X186903224Y-64892877D01*
X186902777Y-65404877D01*
X187098298Y-65878075D01*
X187460021Y-66240429D01*
X187892957Y-66420200D01*
X187461925Y-66598298D01*
X187099571Y-66960021D01*
X186903224Y-67432877D01*
X186902777Y-67944877D01*
X187098298Y-68418075D01*
X187460021Y-68780429D01*
X187892957Y-68960200D01*
X187461925Y-69138298D01*
X187099571Y-69500021D01*
X186903224Y-69972877D01*
X186902777Y-70484877D01*
X187098298Y-70958075D01*
X187460021Y-71320429D01*
X187892957Y-71500200D01*
X187461925Y-71678298D01*
X187099571Y-72040021D01*
X186903224Y-72512877D01*
X186902777Y-73024877D01*
X187098298Y-73498075D01*
X187460021Y-73860429D01*
X187892957Y-74040200D01*
X187461925Y-74218298D01*
X187099571Y-74580021D01*
X186903224Y-75052877D01*
X186902777Y-75564877D01*
X187098298Y-76038075D01*
X187460021Y-76400429D01*
X187892957Y-76580200D01*
X187461925Y-76758298D01*
X187099571Y-77120021D01*
X186903224Y-77592877D01*
X186902777Y-78104877D01*
X187098298Y-78578075D01*
X187460021Y-78940429D01*
X187892957Y-79120200D01*
X187461925Y-79298298D01*
X187099571Y-79660021D01*
X186903224Y-80132877D01*
X186902777Y-80644877D01*
X187098298Y-81118075D01*
X187460021Y-81480429D01*
X187892957Y-81660200D01*
X187461925Y-81838298D01*
X187099571Y-82200021D01*
X186903224Y-82672877D01*
X186902777Y-83184877D01*
X187098298Y-83658075D01*
X187460021Y-84020429D01*
X187892957Y-84200200D01*
X187461925Y-84378298D01*
X187099571Y-84740021D01*
X186903224Y-85212877D01*
X186902777Y-85724877D01*
X187098298Y-86198075D01*
X187460021Y-86560429D01*
X187892957Y-86740200D01*
X187461925Y-86918298D01*
X187099571Y-87280021D01*
X186903224Y-87752877D01*
X186902777Y-88264877D01*
X187098298Y-88738075D01*
X187460021Y-89100429D01*
X187892957Y-89280200D01*
X187461925Y-89458298D01*
X187099571Y-89820021D01*
X186903224Y-90292877D01*
X186902777Y-90804877D01*
X187098298Y-91278075D01*
X187460021Y-91640429D01*
X187892957Y-91820200D01*
X187461925Y-91998298D01*
X187099571Y-92360021D01*
X186903224Y-92832877D01*
X186902777Y-93344877D01*
X187098298Y-93818075D01*
X187460021Y-94180429D01*
X187892957Y-94360200D01*
X187461925Y-94538298D01*
X187099571Y-94900021D01*
X186903224Y-95372877D01*
X186902777Y-95884877D01*
X187098298Y-96358075D01*
X187460021Y-96720429D01*
X187892957Y-96900200D01*
X187461925Y-97078298D01*
X187099571Y-97440021D01*
X186903224Y-97912877D01*
X186902777Y-98424877D01*
X187098298Y-98898075D01*
X187460021Y-99260429D01*
X187892957Y-99440200D01*
X187461925Y-99618298D01*
X187099571Y-99980021D01*
X186903224Y-100452877D01*
X186902777Y-100964877D01*
X187098298Y-101438075D01*
X187460021Y-101800429D01*
X187892957Y-101980200D01*
X187461925Y-102158298D01*
X187099571Y-102520021D01*
X186903224Y-102992877D01*
X186902777Y-103504877D01*
X187098298Y-103978075D01*
X187460021Y-104340429D01*
X187892957Y-104520200D01*
X187461925Y-104698298D01*
X187099571Y-105060021D01*
X186903224Y-105532877D01*
X186902777Y-106044877D01*
X187098298Y-106518075D01*
X187460021Y-106880429D01*
X187892957Y-107060200D01*
X187461925Y-107238298D01*
X187099571Y-107600021D01*
X186903224Y-108072877D01*
X186902777Y-108584877D01*
X187098298Y-109058075D01*
X187460021Y-109420429D01*
X187892957Y-109600200D01*
X187461925Y-109778298D01*
X187099571Y-110140021D01*
X186903224Y-110612877D01*
X186902777Y-111124877D01*
X187098298Y-111598075D01*
X187460021Y-111960429D01*
X187892957Y-112140200D01*
X187461925Y-112318298D01*
X187099571Y-112680021D01*
X186903224Y-113152877D01*
X186902777Y-113664877D01*
X187098298Y-114138075D01*
X187460021Y-114500429D01*
X187892957Y-114680200D01*
X187461925Y-114858298D01*
X187099571Y-115220021D01*
X186903224Y-115692877D01*
X186902777Y-116204877D01*
X187098298Y-116678075D01*
X187460021Y-117040429D01*
X187892957Y-117220200D01*
X187461925Y-117398298D01*
X187099571Y-117760021D01*
X186903224Y-118232877D01*
X186902777Y-118744877D01*
X187098298Y-119218075D01*
X187460021Y-119580429D01*
X187892957Y-119760200D01*
X187461925Y-119938298D01*
X187099571Y-120300021D01*
X186903224Y-120772877D01*
X186902777Y-121284877D01*
X187098298Y-121758075D01*
X187460021Y-122120429D01*
X187892957Y-122300200D01*
X187461925Y-122478298D01*
X187099571Y-122840021D01*
X186903224Y-123312877D01*
X186902777Y-123824877D01*
X187098298Y-124298075D01*
X187460021Y-124660429D01*
X187892957Y-124840200D01*
X187461925Y-125018298D01*
X187099571Y-125380021D01*
X186903224Y-125852877D01*
X186902777Y-126364877D01*
X187098298Y-126838075D01*
X187460021Y-127200429D01*
X187606062Y-127261070D01*
X187399906Y-127346463D01*
X187318406Y-127598801D01*
X188190000Y-128470395D01*
X189061594Y-127598801D01*
X188980094Y-127346463D01*
X188760688Y-127266733D01*
X188918075Y-127201702D01*
X189280429Y-126839979D01*
X189460200Y-126407043D01*
X189638298Y-126838075D01*
X190000021Y-127200429D01*
X190432957Y-127380200D01*
X190001925Y-127558298D01*
X189639571Y-127920021D01*
X189578930Y-128066062D01*
X189493537Y-127859906D01*
X189241199Y-127778406D01*
X188369605Y-128650000D01*
X189241199Y-129521594D01*
X189493537Y-129440094D01*
X189573267Y-129220688D01*
X189638298Y-129378075D01*
X190000021Y-129740429D01*
X190472877Y-129936776D01*
X190984877Y-129937223D01*
X191458075Y-129741702D01*
X191820429Y-129379979D01*
X192016776Y-128907123D01*
X192017223Y-128395123D01*
X191821702Y-127921925D01*
X191459979Y-127559571D01*
X191027043Y-127379800D01*
X191458075Y-127201702D01*
X191462659Y-127197125D01*
X193266730Y-127197125D01*
X195810000Y-129740395D01*
X198353270Y-127197125D01*
X197989370Y-126704290D01*
X196592876Y-126115063D01*
X195077197Y-126105102D01*
X193673080Y-126675926D01*
X193630630Y-126704290D01*
X193266730Y-127197125D01*
X191462659Y-127197125D01*
X191820429Y-126839979D01*
X192016776Y-126367123D01*
X192017223Y-125855123D01*
X191821702Y-125381925D01*
X191459979Y-125019571D01*
X191027043Y-124839800D01*
X191458075Y-124661702D01*
X191820429Y-124299979D01*
X192016776Y-123827123D01*
X192017223Y-123315123D01*
X191821702Y-122841925D01*
X191459979Y-122479571D01*
X191027043Y-122299800D01*
X191458075Y-122121702D01*
X191820429Y-121759979D01*
X192016776Y-121287123D01*
X192017223Y-120775123D01*
X191821702Y-120301925D01*
X191459979Y-119939571D01*
X191027043Y-119759800D01*
X191458075Y-119581702D01*
X191820429Y-119219979D01*
X192016776Y-118747123D01*
X192017223Y-118235123D01*
X191821702Y-117761925D01*
X191459979Y-117399571D01*
X191027043Y-117219800D01*
X191458075Y-117041702D01*
X191820429Y-116679979D01*
X192016776Y-116207123D01*
X192017223Y-115695123D01*
X191821702Y-115221925D01*
X191459979Y-114859571D01*
X191027043Y-114679800D01*
X191458075Y-114501702D01*
X191820429Y-114139979D01*
X192016776Y-113667123D01*
X192017223Y-113155123D01*
X191821702Y-112681925D01*
X191459979Y-112319571D01*
X191027043Y-112139800D01*
X191458075Y-111961702D01*
X191820429Y-111599979D01*
X192016776Y-111127123D01*
X192017223Y-110615123D01*
X191821702Y-110141925D01*
X191459979Y-109779571D01*
X191027043Y-109599800D01*
X191458075Y-109421702D01*
X191820429Y-109059979D01*
X192016776Y-108587123D01*
X192017223Y-108075123D01*
X191821702Y-107601925D01*
X191459979Y-107239571D01*
X191027043Y-107059800D01*
X191458075Y-106881702D01*
X191820429Y-106519979D01*
X192016776Y-106047123D01*
X192017223Y-105535123D01*
X191821702Y-105061925D01*
X191459979Y-104699571D01*
X191027043Y-104519800D01*
X191458075Y-104341702D01*
X191820429Y-103979979D01*
X192016776Y-103507123D01*
X192017223Y-102995123D01*
X191821702Y-102521925D01*
X191459979Y-102159571D01*
X191027043Y-101979800D01*
X191458075Y-101801702D01*
X191820429Y-101439979D01*
X192016776Y-100967123D01*
X192017223Y-100455123D01*
X191821702Y-99981925D01*
X191459979Y-99619571D01*
X191027043Y-99439800D01*
X191458075Y-99261702D01*
X191820429Y-98899979D01*
X192016776Y-98427123D01*
X192017223Y-97915123D01*
X191821702Y-97441925D01*
X191459979Y-97079571D01*
X191027043Y-96899800D01*
X191458075Y-96721702D01*
X191820429Y-96359979D01*
X192016776Y-95887123D01*
X192017223Y-95375123D01*
X191821702Y-94901925D01*
X191459979Y-94539571D01*
X191027043Y-94359800D01*
X191458075Y-94181702D01*
X191820429Y-93819979D01*
X192016776Y-93347123D01*
X192017223Y-92835123D01*
X191821702Y-92361925D01*
X191459979Y-91999571D01*
X191027043Y-91819800D01*
X191458075Y-91641702D01*
X191820429Y-91279979D01*
X192016776Y-90807123D01*
X192017223Y-90295123D01*
X191821702Y-89821925D01*
X191459979Y-89459571D01*
X191027043Y-89279800D01*
X191458075Y-89101702D01*
X191820429Y-88739979D01*
X192016776Y-88267123D01*
X192017223Y-87755123D01*
X191821702Y-87281925D01*
X191459979Y-86919571D01*
X191027043Y-86739800D01*
X191458075Y-86561702D01*
X191820429Y-86199979D01*
X192016776Y-85727123D01*
X192017223Y-85215123D01*
X191821702Y-84741925D01*
X191459979Y-84379571D01*
X191027043Y-84199800D01*
X191458075Y-84021702D01*
X191820429Y-83659979D01*
X192016776Y-83187123D01*
X192017223Y-82675123D01*
X191821702Y-82201925D01*
X191459979Y-81839571D01*
X191027043Y-81659800D01*
X191458075Y-81481702D01*
X191820429Y-81119979D01*
X192016776Y-80647123D01*
X192017223Y-80135123D01*
X191821702Y-79661925D01*
X191459979Y-79299571D01*
X191027043Y-79119800D01*
X191458075Y-78941702D01*
X191820429Y-78579979D01*
X192016776Y-78107123D01*
X192017223Y-77595123D01*
X191821702Y-77121925D01*
X191459979Y-76759571D01*
X191027043Y-76579800D01*
X191458075Y-76401702D01*
X191820429Y-76039979D01*
X192016776Y-75567123D01*
X192017223Y-75055123D01*
X191821702Y-74581925D01*
X191459979Y-74219571D01*
X191027043Y-74039800D01*
X191458075Y-73861702D01*
X191820429Y-73499979D01*
X192016776Y-73027123D01*
X192017223Y-72515123D01*
X191821702Y-72041925D01*
X191459979Y-71679571D01*
X191027043Y-71499800D01*
X191458075Y-71321702D01*
X191820429Y-70959979D01*
X192016776Y-70487123D01*
X192017223Y-69975123D01*
X191821702Y-69501925D01*
X191459979Y-69139571D01*
X191027043Y-68959800D01*
X191458075Y-68781702D01*
X191820429Y-68419979D01*
X192016776Y-67947123D01*
X192017223Y-67435123D01*
X191821702Y-66961925D01*
X191459979Y-66599571D01*
X191027043Y-66419800D01*
X191458075Y-66241702D01*
X191820429Y-65879979D01*
X192016776Y-65407123D01*
X192017223Y-64895123D01*
X191821702Y-64421925D01*
X191459979Y-64059571D01*
X191027043Y-63879800D01*
X191458075Y-63701702D01*
X191820429Y-63339979D01*
X192016776Y-62867123D01*
X192017223Y-62355123D01*
X191821702Y-61881925D01*
X191459979Y-61519571D01*
X191027043Y-61339800D01*
X191458075Y-61161702D01*
X191820429Y-60799979D01*
X192016776Y-60327123D01*
X192017223Y-59815123D01*
X191821702Y-59341925D01*
X191459979Y-58979571D01*
X191027043Y-58799800D01*
X191458075Y-58621702D01*
X191820429Y-58259979D01*
X192016776Y-57787123D01*
X192017223Y-57275123D01*
X191821702Y-56801925D01*
X191459979Y-56439571D01*
X191027043Y-56259800D01*
X191458075Y-56081702D01*
X191820429Y-55719979D01*
X192016776Y-55247123D01*
X192017223Y-54735123D01*
X191821702Y-54261925D01*
X191459979Y-53899571D01*
X191027043Y-53719800D01*
X191458075Y-53541702D01*
X191820429Y-53179979D01*
X192016776Y-52707123D01*
X192016840Y-52632875D01*
X193266730Y-52632875D01*
X193630630Y-53125710D01*
X195027124Y-53714937D01*
X196542803Y-53724898D01*
X197946920Y-53154074D01*
X197989370Y-53125710D01*
X198353270Y-52632875D01*
X195810000Y-50089605D01*
X193266730Y-52632875D01*
X192016840Y-52632875D01*
X192017223Y-52195123D01*
X191821702Y-51721925D01*
X191459979Y-51359571D01*
X191313938Y-51298930D01*
X191520094Y-51213537D01*
X191601594Y-50961199D01*
X190730000Y-50089605D01*
X189858406Y-50961199D01*
X189939906Y-51213537D01*
X190159312Y-51293267D01*
X190001925Y-51358298D01*
X189639571Y-51720021D01*
X189459800Y-52152957D01*
X189281702Y-51721925D01*
X188919979Y-51359571D01*
X188773938Y-51298930D01*
X188980094Y-51213537D01*
X189061594Y-50961199D01*
X188190000Y-50089605D01*
X187318406Y-50961199D01*
X187399906Y-51213537D01*
X187619312Y-51293267D01*
X187461925Y-51358298D01*
X187099571Y-51720021D01*
X186903224Y-52192877D01*
X186902777Y-52704877D01*
X172670365Y-52704877D01*
X172670365Y-49678890D01*
X186683333Y-49678890D01*
X186709579Y-50273059D01*
X186886463Y-50700094D01*
X187138801Y-50781594D01*
X188010395Y-49910000D01*
X188369605Y-49910000D01*
X189241199Y-50781594D01*
X189460000Y-50710926D01*
X189678801Y-50781594D01*
X190550395Y-49910000D01*
X190909605Y-49910000D01*
X191781199Y-50781594D01*
X192020151Y-50704418D01*
X192565926Y-52046920D01*
X192594290Y-52089370D01*
X193087125Y-52453270D01*
X195630395Y-49910000D01*
X195989605Y-49910000D01*
X198532875Y-52453270D01*
X199025710Y-52089370D01*
X199614937Y-50692876D01*
X199624898Y-49177197D01*
X199054074Y-47773080D01*
X199025710Y-47730630D01*
X198532875Y-47366730D01*
X195989605Y-49910000D01*
X195630395Y-49910000D01*
X193087125Y-47366730D01*
X192594290Y-47730630D01*
X192011158Y-49112678D01*
X191781199Y-49038406D01*
X190909605Y-49910000D01*
X190550395Y-49910000D01*
X189678801Y-49038406D01*
X189460000Y-49109074D01*
X189241199Y-49038406D01*
X188369605Y-49910000D01*
X188010395Y-49910000D01*
X187138801Y-49038406D01*
X186886463Y-49119906D01*
X186683333Y-49678890D01*
X172670365Y-49678890D01*
X172670365Y-48858801D01*
X187318406Y-48858801D01*
X188190000Y-49730395D01*
X189061594Y-48858801D01*
X189858406Y-48858801D01*
X190730000Y-49730395D01*
X191601594Y-48858801D01*
X191520094Y-48606463D01*
X190961110Y-48403333D01*
X190366941Y-48429579D01*
X189939906Y-48606463D01*
X189858406Y-48858801D01*
X189061594Y-48858801D01*
X188980094Y-48606463D01*
X188421110Y-48403333D01*
X187826941Y-48429579D01*
X187399906Y-48606463D01*
X187318406Y-48858801D01*
X172670365Y-48858801D01*
X172670365Y-47187125D01*
X193266730Y-47187125D01*
X195810000Y-49730395D01*
X198353270Y-47187125D01*
X197989370Y-46694290D01*
X196592876Y-46105063D01*
X195077197Y-46095102D01*
X193673080Y-46665926D01*
X193630630Y-46694290D01*
X193266730Y-47187125D01*
X172670365Y-47187125D01*
X172670365Y-46600000D01*
X172640591Y-46441763D01*
X172547073Y-46296433D01*
X172404381Y-46198936D01*
X172235000Y-46164635D01*
X165765000Y-46164635D01*
X165606763Y-46194409D01*
X165461433Y-46287927D01*
X165363936Y-46430619D01*
X165329635Y-46600000D01*
X165329635Y-47403000D01*
X148622969Y-47403000D01*
X148208115Y-47125804D01*
X147088001Y-46902998D01*
X147087996Y-46902999D01*
X140670365Y-46902999D01*
X140670365Y-46600000D01*
X140640591Y-46441763D01*
X140547073Y-46296433D01*
X140404381Y-46198936D01*
X140235000Y-46164635D01*
X133765000Y-46164635D01*
X133606763Y-46194409D01*
X133461433Y-46287927D01*
X133363936Y-46430619D01*
X133329635Y-46600000D01*
X133329635Y-47403000D01*
X128765000Y-47403000D01*
X127644885Y-47625805D01*
X127264534Y-47879947D01*
X126695298Y-48260298D01*
X126695296Y-48260301D01*
X115025298Y-59930298D01*
X114390805Y-60879886D01*
X114167999Y-62000000D01*
X105502000Y-62000000D01*
X105502000Y-55172875D01*
X107536730Y-55172875D01*
X107900630Y-55665710D01*
X109297124Y-56254937D01*
X110812803Y-56264898D01*
X112216920Y-55694074D01*
X112259370Y-55665710D01*
X112623270Y-55172875D01*
X110080000Y-52629605D01*
X107536730Y-55172875D01*
X105502000Y-55172875D01*
X105502000Y-53182803D01*
X106265102Y-53182803D01*
X106835926Y-54586920D01*
X106864290Y-54629370D01*
X107357125Y-54993270D01*
X109900395Y-52450000D01*
X110259605Y-52450000D01*
X112802875Y-54993270D01*
X113295710Y-54629370D01*
X113884937Y-53232876D01*
X113894898Y-51717197D01*
X113324074Y-50313080D01*
X113295710Y-50270630D01*
X112802875Y-49906730D01*
X110259605Y-52450000D01*
X109900395Y-52450000D01*
X107357125Y-49906730D01*
X106864290Y-50270630D01*
X106275063Y-51667124D01*
X106265102Y-53182803D01*
X105502000Y-53182803D01*
X105502000Y-49727125D01*
X107536730Y-49727125D01*
X110080000Y-52270395D01*
X112623270Y-49727125D01*
X112259370Y-49234290D01*
X110862876Y-48645063D01*
X109347197Y-48635102D01*
X107943080Y-49205926D01*
X107900630Y-49234290D01*
X107536730Y-49727125D01*
X105502000Y-49727125D01*
X105502000Y-45332000D01*
X200388000Y-45332000D01*
X200388000Y-134498000D01*
X200388000Y-134498000D01*
G37*
X200388000Y-134498000D02*
X105502000Y-134498000D01*
X105502000Y-128832875D01*
X107536730Y-128832875D01*
X107900630Y-129325710D01*
X109297124Y-129914937D01*
X110812803Y-129924898D01*
X112216920Y-129354074D01*
X112259370Y-129325710D01*
X112623270Y-128832875D01*
X110080000Y-126289605D01*
X107536730Y-128832875D01*
X105502000Y-128832875D01*
X105502000Y-126842803D01*
X106265102Y-126842803D01*
X106835926Y-128246920D01*
X106864290Y-128289370D01*
X107357125Y-128653270D01*
X109900395Y-126110000D01*
X110259605Y-126110000D01*
X112802875Y-128653270D01*
X113295710Y-128289370D01*
X113884937Y-126892876D01*
X113894898Y-125377197D01*
X113324074Y-123973080D01*
X113295710Y-123930630D01*
X112802875Y-123566730D01*
X110259605Y-126110000D01*
X109900395Y-126110000D01*
X107357125Y-123566730D01*
X106864290Y-123930630D01*
X106275063Y-125327124D01*
X106265102Y-126842803D01*
X105502000Y-126842803D01*
X105502000Y-123387125D01*
X107536730Y-123387125D01*
X110080000Y-125930395D01*
X112623270Y-123387125D01*
X112259370Y-122894290D01*
X110862876Y-122305063D01*
X109347197Y-122295102D01*
X107943080Y-122865926D01*
X107900630Y-122894290D01*
X107536730Y-123387125D01*
X105502000Y-123387125D01*
X105502000Y-82285750D01*
X107165000Y-82285750D01*
X107165000Y-82576310D01*
X107261673Y-82809699D01*
X107440302Y-82988327D01*
X107673691Y-83085000D01*
X107766250Y-83085000D01*
X107925000Y-82926250D01*
X107925000Y-82127000D01*
X107323750Y-82127000D01*
X107165000Y-82285750D01*
X105502000Y-82285750D01*
X105502000Y-79381622D01*
X106072666Y-79381622D01*
X106365416Y-80090132D01*
X106907017Y-80632678D01*
X107615014Y-80926665D01*
X107645465Y-80926692D01*
X107440302Y-81011673D01*
X107261673Y-81190301D01*
X107165000Y-81423690D01*
X107165000Y-81714250D01*
X107323750Y-81873000D01*
X107925000Y-81873000D01*
X107925000Y-81853000D01*
X108175000Y-81853000D01*
X108175000Y-81873000D01*
X108197000Y-81873000D01*
X108197000Y-82127000D01*
X108175000Y-82127000D01*
X108175000Y-82926250D01*
X108333750Y-83085000D01*
X108426309Y-83085000D01*
X108659698Y-82988327D01*
X108838327Y-82809699D01*
X108911058Y-82634110D01*
X108987927Y-82753567D01*
X109130619Y-82851064D01*
X109300000Y-82885365D01*
X109800000Y-82885365D01*
X109958237Y-82855591D01*
X110103567Y-82762073D01*
X110161695Y-82677000D01*
X110823000Y-82677000D01*
X110823000Y-83130644D01*
X110684986Y-83073335D01*
X109918378Y-83072666D01*
X109209868Y-83365416D01*
X108667322Y-83907017D01*
X108373335Y-84615014D01*
X108372666Y-85381622D01*
X108665416Y-86090132D01*
X109207017Y-86632678D01*
X109915014Y-86926665D01*
X110681622Y-86927334D01*
X110823000Y-86868918D01*
X110823000Y-89634966D01*
X110773214Y-89754864D01*
X110772788Y-90242995D01*
X110823000Y-90364517D01*
X110823000Y-101658470D01*
X110677000Y-101512470D01*
X110677000Y-90365034D01*
X110726786Y-90245136D01*
X110727212Y-89757005D01*
X110540806Y-89305869D01*
X110195947Y-88960407D01*
X109745136Y-88773214D01*
X109257005Y-88772788D01*
X108805869Y-88959194D01*
X108460407Y-89304053D01*
X108273214Y-89754864D01*
X108272788Y-90242995D01*
X108323000Y-90364517D01*
X108323000Y-102000000D01*
X108412594Y-102450419D01*
X108667735Y-102832265D01*
X112323000Y-106487530D01*
X112323000Y-115634966D01*
X112273214Y-115754864D01*
X112272788Y-116242995D01*
X112459194Y-116694131D01*
X112804053Y-117039593D01*
X113254864Y-117226786D01*
X113742995Y-117227212D01*
X114194131Y-117040806D01*
X114539593Y-116695947D01*
X114726786Y-116245136D01*
X114727212Y-115757005D01*
X114677000Y-115635483D01*
X114677000Y-106365034D01*
X114683896Y-106348426D01*
X114823000Y-106487530D01*
X114823000Y-113500000D01*
X114912594Y-113950419D01*
X115167735Y-114332265D01*
X115651749Y-114816279D01*
X115305869Y-114959194D01*
X114960407Y-115304053D01*
X114773214Y-115754864D01*
X114772788Y-116242995D01*
X114959194Y-116694131D01*
X115304053Y-117039593D01*
X115754864Y-117226786D01*
X116242995Y-117227212D01*
X116694131Y-117040806D01*
X117039593Y-116695947D01*
X117183896Y-116348426D01*
X117409618Y-116574148D01*
X117459194Y-116694131D01*
X117804053Y-117039593D01*
X118254864Y-117226786D01*
X118742995Y-117227212D01*
X119194131Y-117040806D01*
X119539593Y-116695947D01*
X119726786Y-116245136D01*
X119727212Y-115757005D01*
X119540806Y-115305869D01*
X119195947Y-114960407D01*
X119115494Y-114927000D01*
X121000000Y-114927000D01*
X122120114Y-114704195D01*
X123069702Y-114069702D01*
X123704195Y-113120114D01*
X123927000Y-112000000D01*
X123704195Y-110879886D01*
X123069702Y-109930298D01*
X122120114Y-109295805D01*
X121000000Y-109073000D01*
X118000000Y-109073000D01*
X117177000Y-109236705D01*
X117177000Y-106365034D01*
X117226786Y-106245136D01*
X117227212Y-105757005D01*
X117040806Y-105305869D01*
X116695947Y-104960407D01*
X116574513Y-104909983D01*
X113177000Y-101512470D01*
X113177000Y-90365034D01*
X113226786Y-90245136D01*
X113227212Y-89757005D01*
X113177000Y-89635483D01*
X113177000Y-79487530D01*
X114457934Y-78206596D01*
X114600000Y-78235365D01*
X114983989Y-78235365D01*
X114946401Y-78272953D01*
X114856025Y-78272874D01*
X114588725Y-78383320D01*
X114384039Y-78587650D01*
X114273126Y-78854756D01*
X114272874Y-79143975D01*
X114383320Y-79411275D01*
X114587650Y-79615961D01*
X114854756Y-79726874D01*
X115143975Y-79727126D01*
X115411275Y-79616680D01*
X115615961Y-79412350D01*
X115726874Y-79145244D01*
X115726954Y-79053692D01*
X116090323Y-78690323D01*
X116158927Y-78587650D01*
X116209982Y-78511241D01*
X116252000Y-78300000D01*
X116252000Y-78052000D01*
X116254744Y-78052000D01*
X116287927Y-78103567D01*
X116430619Y-78201064D01*
X116600000Y-78235365D01*
X117000000Y-78235365D01*
X117123306Y-78212164D01*
X116717734Y-78617736D01*
X116462593Y-78999582D01*
X116433619Y-79145244D01*
X116372999Y-79450001D01*
X116372999Y-82962472D01*
X116262243Y-83073228D01*
X115618378Y-83072666D01*
X114909868Y-83365416D01*
X114367322Y-83907017D01*
X114073335Y-84615014D01*
X114072666Y-85381622D01*
X114365416Y-86090132D01*
X114823000Y-86548514D01*
X114823000Y-88012471D01*
X113925852Y-88909618D01*
X113805869Y-88959194D01*
X113460407Y-89304053D01*
X113273214Y-89754864D01*
X113272788Y-90242995D01*
X113323000Y-90364517D01*
X113323000Y-91131370D01*
X113412594Y-91581789D01*
X113667735Y-91963635D01*
X117323000Y-95618900D01*
X117323000Y-105634966D01*
X117273214Y-105754864D01*
X117272788Y-106242995D01*
X117459194Y-106694131D01*
X117804053Y-107039593D01*
X118254864Y-107226786D01*
X118742995Y-107227212D01*
X119194131Y-107040806D01*
X119539593Y-106695947D01*
X119726786Y-106245136D01*
X119727212Y-105757005D01*
X119677000Y-105635483D01*
X119677000Y-102568631D01*
X119879886Y-102704195D01*
X121000000Y-102927000D01*
X124073000Y-102927000D01*
X124073000Y-119174995D01*
X124072999Y-119175000D01*
X124295805Y-120295114D01*
X124930298Y-121244702D01*
X133329635Y-129644038D01*
X133329635Y-133400000D01*
X133359409Y-133558237D01*
X133452927Y-133703567D01*
X133595619Y-133801064D01*
X133765000Y-133835365D01*
X140235000Y-133835365D01*
X140393237Y-133805591D01*
X140538567Y-133712073D01*
X140636064Y-133569381D01*
X140670365Y-133400000D01*
X140670365Y-126231328D01*
X158922640Y-126231328D01*
X159238178Y-126994989D01*
X159821938Y-127579768D01*
X160585047Y-127896639D01*
X161411328Y-127897360D01*
X162174989Y-127581822D01*
X162759768Y-126998062D01*
X163076639Y-126234953D01*
X163077360Y-125408672D01*
X162761822Y-124645011D01*
X162178062Y-124060232D01*
X161414953Y-123743361D01*
X160588672Y-123742640D01*
X159825011Y-124058178D01*
X159240232Y-124641938D01*
X158923361Y-125405047D01*
X158922640Y-126231328D01*
X140670365Y-126231328D01*
X140670365Y-125940000D01*
X140640591Y-125781763D01*
X140547073Y-125636433D01*
X140404381Y-125538936D01*
X140235000Y-125504635D01*
X137469038Y-125504635D01*
X129927000Y-117962596D01*
X129927000Y-112000000D01*
X134073000Y-112000000D01*
X134295805Y-113120114D01*
X134930298Y-114069702D01*
X135879886Y-114704195D01*
X137000000Y-114927000D01*
X144459044Y-114927000D01*
X143485582Y-115329226D01*
X142731873Y-116081621D01*
X142323465Y-117065176D01*
X142322536Y-118130152D01*
X142729226Y-119114418D01*
X143481621Y-119868127D01*
X144465176Y-120276535D01*
X145530152Y-120277464D01*
X146514418Y-119870774D01*
X147268127Y-119118379D01*
X147676535Y-118134824D01*
X147677464Y-117069848D01*
X147270774Y-116085582D01*
X146518379Y-115331873D01*
X145543337Y-114927000D01*
X158847596Y-114927000D01*
X166073000Y-122152403D01*
X166073000Y-125504635D01*
X165765000Y-125504635D01*
X165606763Y-125534409D01*
X165461433Y-125627927D01*
X165363936Y-125770619D01*
X165329635Y-125940000D01*
X165329635Y-133400000D01*
X165359409Y-133558237D01*
X165452927Y-133703567D01*
X165595619Y-133801064D01*
X165765000Y-133835365D01*
X172235000Y-133835365D01*
X172393237Y-133805591D01*
X172538567Y-133712073D01*
X172636064Y-133569381D01*
X172670365Y-133400000D01*
X172670365Y-132642875D01*
X193266730Y-132642875D01*
X193630630Y-133135710D01*
X195027124Y-133724937D01*
X196542803Y-133734898D01*
X197946920Y-133164074D01*
X197989370Y-133135710D01*
X198353270Y-132642875D01*
X195810000Y-130099605D01*
X193266730Y-132642875D01*
X172670365Y-132642875D01*
X172670365Y-130652803D01*
X191995102Y-130652803D01*
X192565926Y-132056920D01*
X192594290Y-132099370D01*
X193087125Y-132463270D01*
X195630395Y-129920000D01*
X195989605Y-129920000D01*
X198532875Y-132463270D01*
X199025710Y-132099370D01*
X199614937Y-130702876D01*
X199624898Y-129187197D01*
X199054074Y-127783080D01*
X199025710Y-127740630D01*
X198532875Y-127376730D01*
X195989605Y-129920000D01*
X195630395Y-129920000D01*
X193087125Y-127376730D01*
X192594290Y-127740630D01*
X192005063Y-129137124D01*
X191995102Y-130652803D01*
X172670365Y-130652803D01*
X172670365Y-129701199D01*
X187318406Y-129701199D01*
X187399906Y-129953537D01*
X187958890Y-130156667D01*
X188553059Y-130130421D01*
X188980094Y-129953537D01*
X189061594Y-129701199D01*
X188190000Y-128829605D01*
X187318406Y-129701199D01*
X172670365Y-129701199D01*
X172670365Y-128418890D01*
X186683333Y-128418890D01*
X186709579Y-129013059D01*
X186886463Y-129440094D01*
X187138801Y-129521594D01*
X188010395Y-128650000D01*
X187138801Y-127778406D01*
X186886463Y-127859906D01*
X186683333Y-128418890D01*
X172670365Y-128418890D01*
X172670365Y-125940000D01*
X172640591Y-125781763D01*
X172547073Y-125636433D01*
X172404381Y-125538936D01*
X172235000Y-125504635D01*
X171927000Y-125504635D01*
X171927000Y-120940000D01*
X171704195Y-119819886D01*
X171704195Y-119819885D01*
X171450053Y-119439534D01*
X171069702Y-118870298D01*
X171069699Y-118870296D01*
X170329556Y-118130152D01*
X174322536Y-118130152D01*
X174729226Y-119114418D01*
X175481621Y-119868127D01*
X176465176Y-120276535D01*
X177530152Y-120277464D01*
X178514418Y-119870774D01*
X179268127Y-119118379D01*
X179676535Y-118134824D01*
X179677464Y-117069848D01*
X179270774Y-116085582D01*
X178518379Y-115331873D01*
X177534824Y-114923465D01*
X176469848Y-114922536D01*
X175485582Y-115329226D01*
X174731873Y-116081621D01*
X174323465Y-117065176D01*
X174322536Y-118130152D01*
X170329556Y-118130152D01*
X162129702Y-109930298D01*
X161180114Y-109295805D01*
X160060000Y-109072999D01*
X160059995Y-109073000D01*
X137000000Y-109073000D01*
X135879886Y-109295805D01*
X134930298Y-109930298D01*
X134295805Y-110879886D01*
X134073000Y-112000000D01*
X129927000Y-112000000D01*
X129927000Y-100000000D01*
X129704195Y-98879886D01*
X129069702Y-97930298D01*
X128120114Y-97295805D01*
X127000000Y-97073000D01*
X121000000Y-97073000D01*
X119879886Y-97295805D01*
X119677000Y-97431369D01*
X119677000Y-95131370D01*
X119587406Y-94680951D01*
X119332265Y-94299105D01*
X115677000Y-90643840D01*
X115677000Y-90579662D01*
X118072493Y-90579662D01*
X118517164Y-91655846D01*
X119339823Y-92479943D01*
X120415229Y-92926490D01*
X121579662Y-92927507D01*
X122655846Y-92482836D01*
X123479943Y-91660177D01*
X123926490Y-90584771D01*
X123926494Y-90579662D01*
X150072493Y-90579662D01*
X150517164Y-91655846D01*
X151339823Y-92479943D01*
X152415229Y-92926490D01*
X153579662Y-92927507D01*
X154655846Y-92482836D01*
X155479943Y-91660177D01*
X155926490Y-90584771D01*
X155926494Y-90579662D01*
X180072493Y-90579662D01*
X180517164Y-91655846D01*
X181339823Y-92479943D01*
X182415229Y-92926490D01*
X183579662Y-92927507D01*
X184655846Y-92482836D01*
X185479943Y-91660177D01*
X185926490Y-90584771D01*
X185927507Y-89420338D01*
X185482836Y-88344154D01*
X184660177Y-87520057D01*
X183584771Y-87073510D01*
X182420338Y-87072493D01*
X181344154Y-87517164D01*
X180520057Y-88339823D01*
X180073510Y-89415229D01*
X180072493Y-90579662D01*
X155926494Y-90579662D01*
X155927507Y-89420338D01*
X155482836Y-88344154D01*
X154660177Y-87520057D01*
X153584771Y-87073510D01*
X152420338Y-87072493D01*
X151344154Y-87517164D01*
X150520057Y-88339823D01*
X150073510Y-89415229D01*
X150072493Y-90579662D01*
X123926494Y-90579662D01*
X123927507Y-89420338D01*
X123482836Y-88344154D01*
X122660177Y-87520057D01*
X121584771Y-87073510D01*
X120420338Y-87072493D01*
X119344154Y-87517164D01*
X118520057Y-88339823D01*
X118073510Y-89415229D01*
X118072493Y-90579662D01*
X115677000Y-90579662D01*
X115677000Y-90487530D01*
X116832262Y-89332267D01*
X116832265Y-89332265D01*
X116987172Y-89100429D01*
X117087406Y-88950419D01*
X117177000Y-88500000D01*
X117177000Y-86547867D01*
X117632678Y-86092983D01*
X117926665Y-85384986D01*
X117927230Y-84737299D01*
X118382261Y-84282268D01*
X118382264Y-84282266D01*
X118637405Y-83900419D01*
X118652805Y-83823000D01*
X118727000Y-83450001D01*
X118726999Y-83449996D01*
X118726999Y-79937531D01*
X119832265Y-78832265D01*
X120087406Y-78450419D01*
X120177000Y-78000000D01*
X120087406Y-77549582D01*
X119927000Y-77309517D01*
X119927000Y-76241307D01*
X119935365Y-76200000D01*
X119935365Y-75300000D01*
X119927000Y-75255543D01*
X119927000Y-74111343D01*
X120003567Y-74062073D01*
X120101064Y-73919381D01*
X120135365Y-73750000D01*
X120135365Y-73250000D01*
X120105591Y-73091763D01*
X120012073Y-72946433D01*
X119869381Y-72848936D01*
X119700000Y-72814635D01*
X118800000Y-72814635D01*
X118641763Y-72844409D01*
X118496433Y-72937927D01*
X118398936Y-73080619D01*
X118364635Y-73250000D01*
X118364635Y-73364226D01*
X118145244Y-73273126D01*
X117885365Y-73272900D01*
X117885365Y-71675000D01*
X117871629Y-71602000D01*
X118035998Y-71602000D01*
X118364635Y-71930636D01*
X118364635Y-72250000D01*
X118394409Y-72408237D01*
X118487927Y-72553567D01*
X118630619Y-72651064D01*
X118800000Y-72685365D01*
X119700000Y-72685365D01*
X119858237Y-72655591D01*
X120003567Y-72562073D01*
X120101064Y-72419381D01*
X120135365Y-72250000D01*
X120135365Y-71750000D01*
X120105591Y-71591763D01*
X120012073Y-71446433D01*
X119869381Y-71348936D01*
X119700000Y-71314635D01*
X119380636Y-71314635D01*
X118683001Y-70616999D01*
X118495808Y-70491922D01*
X118352572Y-70463430D01*
X118755636Y-70060365D01*
X119150000Y-70060365D01*
X119308237Y-70030591D01*
X119453567Y-69937073D01*
X119551064Y-69794381D01*
X119585365Y-69625000D01*
X119585365Y-68875000D01*
X119555591Y-68716763D01*
X119462073Y-68571433D01*
X119319381Y-68473936D01*
X119150000Y-68439635D01*
X118350000Y-68439635D01*
X118191763Y-68469409D01*
X118046433Y-68562927D01*
X118000169Y-68630636D01*
X117962073Y-68571433D01*
X117927000Y-68547469D01*
X117927000Y-67361343D01*
X118003567Y-67312073D01*
X118101064Y-67169381D01*
X118135365Y-67000000D01*
X118135365Y-66500000D01*
X118105591Y-66341763D01*
X118012073Y-66196433D01*
X117869381Y-66098936D01*
X117700000Y-66064635D01*
X116800000Y-66064635D01*
X116641763Y-66094409D01*
X116496433Y-66187927D01*
X116398936Y-66330619D01*
X116375381Y-66446937D01*
X116355591Y-66341763D01*
X116262073Y-66196433D01*
X116119381Y-66098936D01*
X115950000Y-66064635D01*
X115050000Y-66064635D01*
X114891763Y-66094409D01*
X114746433Y-66187927D01*
X114648936Y-66330619D01*
X114614635Y-66500000D01*
X114614635Y-67000000D01*
X114644409Y-67158237D01*
X114737927Y-67303567D01*
X114880619Y-67401064D01*
X114923000Y-67409646D01*
X114923000Y-67448757D01*
X114884039Y-67487650D01*
X114773126Y-67754756D01*
X114772874Y-68043975D01*
X114883320Y-68311275D01*
X115025458Y-68453661D01*
X114941763Y-68469409D01*
X114796433Y-68562927D01*
X114750169Y-68630636D01*
X114712073Y-68571433D01*
X114569381Y-68473936D01*
X114400000Y-68439635D01*
X113600000Y-68439635D01*
X113441763Y-68469409D01*
X113296433Y-68562927D01*
X113289550Y-68573000D01*
X113100000Y-68573000D01*
X112840923Y-68624534D01*
X112768389Y-68673000D01*
X112621289Y-68771289D01*
X111821289Y-69571289D01*
X111674534Y-69790923D01*
X111623000Y-70050000D01*
X111623000Y-72425000D01*
X111674534Y-72684077D01*
X111801794Y-72874534D01*
X111821289Y-72903711D01*
X112439635Y-73522058D01*
X112439635Y-74000000D01*
X112469409Y-74158237D01*
X112473000Y-74163818D01*
X112473000Y-74400000D01*
X112504384Y-74560677D01*
X112598065Y-74701935D01*
X112835133Y-74939003D01*
X112823000Y-75000000D01*
X112823000Y-76512470D01*
X111167735Y-78167735D01*
X110912594Y-78549581D01*
X110834849Y-78940429D01*
X110823000Y-79000000D01*
X110823000Y-81323000D01*
X110161343Y-81323000D01*
X110112073Y-81246433D01*
X109969381Y-81148936D01*
X109800000Y-81114635D01*
X109300000Y-81114635D01*
X109141763Y-81144409D01*
X108996433Y-81237927D01*
X108910281Y-81364014D01*
X108838327Y-81190301D01*
X108659698Y-81011673D01*
X108426309Y-80915000D01*
X108411473Y-80915000D01*
X109090132Y-80634584D01*
X109632678Y-80092983D01*
X109795003Y-79702062D01*
X109854756Y-79726874D01*
X110143975Y-79727126D01*
X110411275Y-79616680D01*
X110615961Y-79412350D01*
X110726874Y-79145244D01*
X110727126Y-78856025D01*
X110616680Y-78588725D01*
X110412350Y-78384039D01*
X110145244Y-78273126D01*
X109856025Y-78272874D01*
X109794994Y-78298091D01*
X109634584Y-77909868D01*
X109092983Y-77367322D01*
X108384986Y-77073335D01*
X107618378Y-77072666D01*
X106909868Y-77365416D01*
X106367322Y-77907017D01*
X106073335Y-78615014D01*
X106072666Y-79381622D01*
X105502000Y-79381622D01*
X105502000Y-75381622D01*
X106072666Y-75381622D01*
X106365416Y-76090132D01*
X106907017Y-76632678D01*
X107615014Y-76926665D01*
X108381622Y-76927334D01*
X109090132Y-76634584D01*
X109632678Y-76092983D01*
X109926665Y-75384986D01*
X109927239Y-74726937D01*
X110143975Y-74727126D01*
X110411275Y-74616680D01*
X110615961Y-74412350D01*
X110726874Y-74145244D01*
X110727126Y-73856025D01*
X110616680Y-73588725D01*
X110412350Y-73384039D01*
X110145244Y-73273126D01*
X109856025Y-73272874D01*
X109588725Y-73383320D01*
X109523932Y-73448000D01*
X109173520Y-73448000D01*
X109092983Y-73367322D01*
X108384986Y-73073335D01*
X107618378Y-73072666D01*
X106909868Y-73365416D01*
X106367322Y-73907017D01*
X106073335Y-74615014D01*
X106072666Y-75381622D01*
X105502000Y-75381622D01*
X105502000Y-62000000D01*
X114167999Y-62000000D01*
X114390805Y-63120114D01*
X114923000Y-63916602D01*
X114923000Y-64588531D01*
X114891763Y-64594409D01*
X114746433Y-64687927D01*
X114648936Y-64830619D01*
X114614635Y-65000000D01*
X114614635Y-65500000D01*
X114644409Y-65658237D01*
X114737927Y-65803567D01*
X114880619Y-65901064D01*
X115050000Y-65935365D01*
X115950000Y-65935365D01*
X116108237Y-65905591D01*
X116230370Y-65827000D01*
X116522222Y-65827000D01*
X116630619Y-65901064D01*
X116800000Y-65935365D01*
X117700000Y-65935365D01*
X117858237Y-65905591D01*
X118003567Y-65812073D01*
X118101064Y-65669381D01*
X118135365Y-65500000D01*
X118135365Y-65000000D01*
X118105591Y-64841763D01*
X118039541Y-64739119D01*
X118215114Y-64704195D01*
X119164702Y-64069702D01*
X120304251Y-62930152D01*
X126322536Y-62930152D01*
X126729226Y-63914418D01*
X127481621Y-64668127D01*
X128465176Y-65076535D01*
X129530152Y-65077464D01*
X130514418Y-64670774D01*
X131268127Y-63918379D01*
X131676535Y-62934824D01*
X131676539Y-62930152D01*
X158322536Y-62930152D01*
X158729226Y-63914418D01*
X159481621Y-64668127D01*
X160465176Y-65076535D01*
X161530152Y-65077464D01*
X162514418Y-64670774D01*
X163268127Y-63918379D01*
X163676535Y-62934824D01*
X163677464Y-61869848D01*
X163270774Y-60885582D01*
X162518379Y-60131873D01*
X161534824Y-59723465D01*
X160469848Y-59722536D01*
X159485582Y-60129226D01*
X158731873Y-60881621D01*
X158323465Y-61865176D01*
X158322536Y-62930152D01*
X131676539Y-62930152D01*
X131677464Y-61869848D01*
X131270774Y-60885582D01*
X130518379Y-60131873D01*
X129534824Y-59723465D01*
X128469848Y-59722536D01*
X127485582Y-60129226D01*
X126731873Y-60881621D01*
X126323465Y-61865176D01*
X126322536Y-62930152D01*
X120304251Y-62930152D01*
X129977403Y-53257000D01*
X133329635Y-53257000D01*
X133329635Y-54060000D01*
X133359409Y-54218237D01*
X133452927Y-54363567D01*
X133595619Y-54461064D01*
X133765000Y-54495365D01*
X140235000Y-54495365D01*
X140393237Y-54465591D01*
X140538567Y-54372073D01*
X140636064Y-54229381D01*
X140670365Y-54060000D01*
X140670365Y-52756999D01*
X143485599Y-52756999D01*
X143240232Y-53001938D01*
X142923361Y-53765047D01*
X142922640Y-54591328D01*
X143238178Y-55354989D01*
X143821938Y-55939768D01*
X144585047Y-56256639D01*
X145411328Y-56257360D01*
X146174989Y-55941822D01*
X146759768Y-55358062D01*
X147076639Y-54594953D01*
X147077360Y-53768672D01*
X146801282Y-53100512D01*
X147588002Y-53257001D01*
X147588007Y-53257000D01*
X165329635Y-53257000D01*
X165329635Y-54060000D01*
X165359409Y-54218237D01*
X165452927Y-54363567D01*
X165595619Y-54461064D01*
X165765000Y-54495365D01*
X172235000Y-54495365D01*
X172393237Y-54465591D01*
X172538567Y-54372073D01*
X172636064Y-54229381D01*
X172670365Y-54060000D01*
X172670365Y-52704877D01*
X186902777Y-52704877D01*
X187098298Y-53178075D01*
X187460021Y-53540429D01*
X187892957Y-53720200D01*
X187461925Y-53898298D01*
X187099571Y-54260021D01*
X186903224Y-54732877D01*
X186902777Y-55244877D01*
X187098298Y-55718075D01*
X187460021Y-56080429D01*
X187892957Y-56260200D01*
X187461925Y-56438298D01*
X187099571Y-56800021D01*
X186903224Y-57272877D01*
X186902777Y-57784877D01*
X187098298Y-58258075D01*
X187460021Y-58620429D01*
X187892957Y-58800200D01*
X187461925Y-58978298D01*
X187099571Y-59340021D01*
X186903224Y-59812877D01*
X186902777Y-60324877D01*
X187098298Y-60798075D01*
X187460021Y-61160429D01*
X187892957Y-61340200D01*
X187461925Y-61518298D01*
X187099571Y-61880021D01*
X186903224Y-62352877D01*
X186902777Y-62864877D01*
X187098298Y-63338075D01*
X187460021Y-63700429D01*
X187892957Y-63880200D01*
X187461925Y-64058298D01*
X187099571Y-64420021D01*
X186903224Y-64892877D01*
X186902777Y-65404877D01*
X187098298Y-65878075D01*
X187460021Y-66240429D01*
X187892957Y-66420200D01*
X187461925Y-66598298D01*
X187099571Y-66960021D01*
X186903224Y-67432877D01*
X186902777Y-67944877D01*
X187098298Y-68418075D01*
X187460021Y-68780429D01*
X187892957Y-68960200D01*
X187461925Y-69138298D01*
X187099571Y-69500021D01*
X186903224Y-69972877D01*
X186902777Y-70484877D01*
X187098298Y-70958075D01*
X187460021Y-71320429D01*
X187892957Y-71500200D01*
X187461925Y-71678298D01*
X187099571Y-72040021D01*
X186903224Y-72512877D01*
X186902777Y-73024877D01*
X187098298Y-73498075D01*
X187460021Y-73860429D01*
X187892957Y-74040200D01*
X187461925Y-74218298D01*
X187099571Y-74580021D01*
X186903224Y-75052877D01*
X186902777Y-75564877D01*
X187098298Y-76038075D01*
X187460021Y-76400429D01*
X187892957Y-76580200D01*
X187461925Y-76758298D01*
X187099571Y-77120021D01*
X186903224Y-77592877D01*
X186902777Y-78104877D01*
X187098298Y-78578075D01*
X187460021Y-78940429D01*
X187892957Y-79120200D01*
X187461925Y-79298298D01*
X187099571Y-79660021D01*
X186903224Y-80132877D01*
X186902777Y-80644877D01*
X187098298Y-81118075D01*
X187460021Y-81480429D01*
X187892957Y-81660200D01*
X187461925Y-81838298D01*
X187099571Y-82200021D01*
X186903224Y-82672877D01*
X186902777Y-83184877D01*
X187098298Y-83658075D01*
X187460021Y-84020429D01*
X187892957Y-84200200D01*
X187461925Y-84378298D01*
X187099571Y-84740021D01*
X186903224Y-85212877D01*
X186902777Y-85724877D01*
X187098298Y-86198075D01*
X187460021Y-86560429D01*
X187892957Y-86740200D01*
X187461925Y-86918298D01*
X187099571Y-87280021D01*
X186903224Y-87752877D01*
X186902777Y-88264877D01*
X187098298Y-88738075D01*
X187460021Y-89100429D01*
X187892957Y-89280200D01*
X187461925Y-89458298D01*
X187099571Y-89820021D01*
X186903224Y-90292877D01*
X186902777Y-90804877D01*
X187098298Y-91278075D01*
X187460021Y-91640429D01*
X187892957Y-91820200D01*
X187461925Y-91998298D01*
X187099571Y-92360021D01*
X186903224Y-92832877D01*
X186902777Y-93344877D01*
X187098298Y-93818075D01*
X187460021Y-94180429D01*
X187892957Y-94360200D01*
X187461925Y-94538298D01*
X187099571Y-94900021D01*
X186903224Y-95372877D01*
X186902777Y-95884877D01*
X187098298Y-96358075D01*
X187460021Y-96720429D01*
X187892957Y-96900200D01*
X187461925Y-97078298D01*
X187099571Y-97440021D01*
X186903224Y-97912877D01*
X186902777Y-98424877D01*
X187098298Y-98898075D01*
X187460021Y-99260429D01*
X187892957Y-99440200D01*
X187461925Y-99618298D01*
X187099571Y-99980021D01*
X186903224Y-100452877D01*
X186902777Y-100964877D01*
X187098298Y-101438075D01*
X187460021Y-101800429D01*
X187892957Y-101980200D01*
X187461925Y-102158298D01*
X187099571Y-102520021D01*
X186903224Y-102992877D01*
X186902777Y-103504877D01*
X187098298Y-103978075D01*
X187460021Y-104340429D01*
X187892957Y-104520200D01*
X187461925Y-104698298D01*
X187099571Y-105060021D01*
X186903224Y-105532877D01*
X186902777Y-106044877D01*
X187098298Y-106518075D01*
X187460021Y-106880429D01*
X187892957Y-107060200D01*
X187461925Y-107238298D01*
X187099571Y-107600021D01*
X186903224Y-108072877D01*
X186902777Y-108584877D01*
X187098298Y-109058075D01*
X187460021Y-109420429D01*
X187892957Y-109600200D01*
X187461925Y-109778298D01*
X187099571Y-110140021D01*
X186903224Y-110612877D01*
X186902777Y-111124877D01*
X187098298Y-111598075D01*
X187460021Y-111960429D01*
X187892957Y-112140200D01*
X187461925Y-112318298D01*
X187099571Y-112680021D01*
X186903224Y-113152877D01*
X186902777Y-113664877D01*
X187098298Y-114138075D01*
X187460021Y-114500429D01*
X187892957Y-114680200D01*
X187461925Y-114858298D01*
X187099571Y-115220021D01*
X186903224Y-115692877D01*
X186902777Y-116204877D01*
X187098298Y-116678075D01*
X187460021Y-117040429D01*
X187892957Y-117220200D01*
X187461925Y-117398298D01*
X187099571Y-117760021D01*
X186903224Y-118232877D01*
X186902777Y-118744877D01*
X187098298Y-119218075D01*
X187460021Y-119580429D01*
X187892957Y-119760200D01*
X187461925Y-119938298D01*
X187099571Y-120300021D01*
X186903224Y-120772877D01*
X186902777Y-121284877D01*
X187098298Y-121758075D01*
X187460021Y-122120429D01*
X187892957Y-122300200D01*
X187461925Y-122478298D01*
X187099571Y-122840021D01*
X186903224Y-123312877D01*
X186902777Y-123824877D01*
X187098298Y-124298075D01*
X187460021Y-124660429D01*
X187892957Y-124840200D01*
X187461925Y-125018298D01*
X187099571Y-125380021D01*
X186903224Y-125852877D01*
X186902777Y-126364877D01*
X187098298Y-126838075D01*
X187460021Y-127200429D01*
X187606062Y-127261070D01*
X187399906Y-127346463D01*
X187318406Y-127598801D01*
X188190000Y-128470395D01*
X189061594Y-127598801D01*
X188980094Y-127346463D01*
X188760688Y-127266733D01*
X188918075Y-127201702D01*
X189280429Y-126839979D01*
X189460200Y-126407043D01*
X189638298Y-126838075D01*
X190000021Y-127200429D01*
X190432957Y-127380200D01*
X190001925Y-127558298D01*
X189639571Y-127920021D01*
X189578930Y-128066062D01*
X189493537Y-127859906D01*
X189241199Y-127778406D01*
X188369605Y-128650000D01*
X189241199Y-129521594D01*
X189493537Y-129440094D01*
X189573267Y-129220688D01*
X189638298Y-129378075D01*
X190000021Y-129740429D01*
X190472877Y-129936776D01*
X190984877Y-129937223D01*
X191458075Y-129741702D01*
X191820429Y-129379979D01*
X192016776Y-128907123D01*
X192017223Y-128395123D01*
X191821702Y-127921925D01*
X191459979Y-127559571D01*
X191027043Y-127379800D01*
X191458075Y-127201702D01*
X191462659Y-127197125D01*
X193266730Y-127197125D01*
X195810000Y-129740395D01*
X198353270Y-127197125D01*
X197989370Y-126704290D01*
X196592876Y-126115063D01*
X195077197Y-126105102D01*
X193673080Y-126675926D01*
X193630630Y-126704290D01*
X193266730Y-127197125D01*
X191462659Y-127197125D01*
X191820429Y-126839979D01*
X192016776Y-126367123D01*
X192017223Y-125855123D01*
X191821702Y-125381925D01*
X191459979Y-125019571D01*
X191027043Y-124839800D01*
X191458075Y-124661702D01*
X191820429Y-124299979D01*
X192016776Y-123827123D01*
X192017223Y-123315123D01*
X191821702Y-122841925D01*
X191459979Y-122479571D01*
X191027043Y-122299800D01*
X191458075Y-122121702D01*
X191820429Y-121759979D01*
X192016776Y-121287123D01*
X192017223Y-120775123D01*
X191821702Y-120301925D01*
X191459979Y-119939571D01*
X191027043Y-119759800D01*
X191458075Y-119581702D01*
X191820429Y-119219979D01*
X192016776Y-118747123D01*
X192017223Y-118235123D01*
X191821702Y-117761925D01*
X191459979Y-117399571D01*
X191027043Y-117219800D01*
X191458075Y-117041702D01*
X191820429Y-116679979D01*
X192016776Y-116207123D01*
X192017223Y-115695123D01*
X191821702Y-115221925D01*
X191459979Y-114859571D01*
X191027043Y-114679800D01*
X191458075Y-114501702D01*
X191820429Y-114139979D01*
X192016776Y-113667123D01*
X192017223Y-113155123D01*
X191821702Y-112681925D01*
X191459979Y-112319571D01*
X191027043Y-112139800D01*
X191458075Y-111961702D01*
X191820429Y-111599979D01*
X192016776Y-111127123D01*
X192017223Y-110615123D01*
X191821702Y-110141925D01*
X191459979Y-109779571D01*
X191027043Y-109599800D01*
X191458075Y-109421702D01*
X191820429Y-109059979D01*
X192016776Y-108587123D01*
X192017223Y-108075123D01*
X191821702Y-107601925D01*
X191459979Y-107239571D01*
X191027043Y-107059800D01*
X191458075Y-106881702D01*
X191820429Y-106519979D01*
X192016776Y-106047123D01*
X192017223Y-105535123D01*
X191821702Y-105061925D01*
X191459979Y-104699571D01*
X191027043Y-104519800D01*
X191458075Y-104341702D01*
X191820429Y-103979979D01*
X192016776Y-103507123D01*
X192017223Y-102995123D01*
X191821702Y-102521925D01*
X191459979Y-102159571D01*
X191027043Y-101979800D01*
X191458075Y-101801702D01*
X191820429Y-101439979D01*
X192016776Y-100967123D01*
X192017223Y-100455123D01*
X191821702Y-99981925D01*
X191459979Y-99619571D01*
X191027043Y-99439800D01*
X191458075Y-99261702D01*
X191820429Y-98899979D01*
X192016776Y-98427123D01*
X192017223Y-97915123D01*
X191821702Y-97441925D01*
X191459979Y-97079571D01*
X191027043Y-96899800D01*
X191458075Y-96721702D01*
X191820429Y-96359979D01*
X192016776Y-95887123D01*
X192017223Y-95375123D01*
X191821702Y-94901925D01*
X191459979Y-94539571D01*
X191027043Y-94359800D01*
X191458075Y-94181702D01*
X191820429Y-93819979D01*
X192016776Y-93347123D01*
X192017223Y-92835123D01*
X191821702Y-92361925D01*
X191459979Y-91999571D01*
X191027043Y-91819800D01*
X191458075Y-91641702D01*
X191820429Y-91279979D01*
X192016776Y-90807123D01*
X192017223Y-90295123D01*
X191821702Y-89821925D01*
X191459979Y-89459571D01*
X191027043Y-89279800D01*
X191458075Y-89101702D01*
X191820429Y-88739979D01*
X192016776Y-88267123D01*
X192017223Y-87755123D01*
X191821702Y-87281925D01*
X191459979Y-86919571D01*
X191027043Y-86739800D01*
X191458075Y-86561702D01*
X191820429Y-86199979D01*
X192016776Y-85727123D01*
X192017223Y-85215123D01*
X191821702Y-84741925D01*
X191459979Y-84379571D01*
X191027043Y-84199800D01*
X191458075Y-84021702D01*
X191820429Y-83659979D01*
X192016776Y-83187123D01*
X192017223Y-82675123D01*
X191821702Y-82201925D01*
X191459979Y-81839571D01*
X191027043Y-81659800D01*
X191458075Y-81481702D01*
X191820429Y-81119979D01*
X192016776Y-80647123D01*
X192017223Y-80135123D01*
X191821702Y-79661925D01*
X191459979Y-79299571D01*
X191027043Y-79119800D01*
X191458075Y-78941702D01*
X191820429Y-78579979D01*
X192016776Y-78107123D01*
X192017223Y-77595123D01*
X191821702Y-77121925D01*
X191459979Y-76759571D01*
X191027043Y-76579800D01*
X191458075Y-76401702D01*
X191820429Y-76039979D01*
X192016776Y-75567123D01*
X192017223Y-75055123D01*
X191821702Y-74581925D01*
X191459979Y-74219571D01*
X191027043Y-74039800D01*
X191458075Y-73861702D01*
X191820429Y-73499979D01*
X192016776Y-73027123D01*
X192017223Y-72515123D01*
X191821702Y-72041925D01*
X191459979Y-71679571D01*
X191027043Y-71499800D01*
X191458075Y-71321702D01*
X191820429Y-70959979D01*
X192016776Y-70487123D01*
X192017223Y-69975123D01*
X191821702Y-69501925D01*
X191459979Y-69139571D01*
X191027043Y-68959800D01*
X191458075Y-68781702D01*
X191820429Y-68419979D01*
X192016776Y-67947123D01*
X192017223Y-67435123D01*
X191821702Y-66961925D01*
X191459979Y-66599571D01*
X191027043Y-66419800D01*
X191458075Y-66241702D01*
X191820429Y-65879979D01*
X192016776Y-65407123D01*
X192017223Y-64895123D01*
X191821702Y-64421925D01*
X191459979Y-64059571D01*
X191027043Y-63879800D01*
X191458075Y-63701702D01*
X191820429Y-63339979D01*
X192016776Y-62867123D01*
X192017223Y-62355123D01*
X191821702Y-61881925D01*
X191459979Y-61519571D01*
X191027043Y-61339800D01*
X191458075Y-61161702D01*
X191820429Y-60799979D01*
X192016776Y-60327123D01*
X192017223Y-59815123D01*
X191821702Y-59341925D01*
X191459979Y-58979571D01*
X191027043Y-58799800D01*
X191458075Y-58621702D01*
X191820429Y-58259979D01*
X192016776Y-57787123D01*
X192017223Y-57275123D01*
X191821702Y-56801925D01*
X191459979Y-56439571D01*
X191027043Y-56259800D01*
X191458075Y-56081702D01*
X191820429Y-55719979D01*
X192016776Y-55247123D01*
X192017223Y-54735123D01*
X191821702Y-54261925D01*
X191459979Y-53899571D01*
X191027043Y-53719800D01*
X191458075Y-53541702D01*
X191820429Y-53179979D01*
X192016776Y-52707123D01*
X192016840Y-52632875D01*
X193266730Y-52632875D01*
X193630630Y-53125710D01*
X195027124Y-53714937D01*
X196542803Y-53724898D01*
X197946920Y-53154074D01*
X197989370Y-53125710D01*
X198353270Y-52632875D01*
X195810000Y-50089605D01*
X193266730Y-52632875D01*
X192016840Y-52632875D01*
X192017223Y-52195123D01*
X191821702Y-51721925D01*
X191459979Y-51359571D01*
X191313938Y-51298930D01*
X191520094Y-51213537D01*
X191601594Y-50961199D01*
X190730000Y-50089605D01*
X189858406Y-50961199D01*
X189939906Y-51213537D01*
X190159312Y-51293267D01*
X190001925Y-51358298D01*
X189639571Y-51720021D01*
X189459800Y-52152957D01*
X189281702Y-51721925D01*
X188919979Y-51359571D01*
X188773938Y-51298930D01*
X188980094Y-51213537D01*
X189061594Y-50961199D01*
X188190000Y-50089605D01*
X187318406Y-50961199D01*
X187399906Y-51213537D01*
X187619312Y-51293267D01*
X187461925Y-51358298D01*
X187099571Y-51720021D01*
X186903224Y-52192877D01*
X186902777Y-52704877D01*
X172670365Y-52704877D01*
X172670365Y-49678890D01*
X186683333Y-49678890D01*
X186709579Y-50273059D01*
X186886463Y-50700094D01*
X187138801Y-50781594D01*
X188010395Y-49910000D01*
X188369605Y-49910000D01*
X189241199Y-50781594D01*
X189460000Y-50710926D01*
X189678801Y-50781594D01*
X190550395Y-49910000D01*
X190909605Y-49910000D01*
X191781199Y-50781594D01*
X192020151Y-50704418D01*
X192565926Y-52046920D01*
X192594290Y-52089370D01*
X193087125Y-52453270D01*
X195630395Y-49910000D01*
X195989605Y-49910000D01*
X198532875Y-52453270D01*
X199025710Y-52089370D01*
X199614937Y-50692876D01*
X199624898Y-49177197D01*
X199054074Y-47773080D01*
X199025710Y-47730630D01*
X198532875Y-47366730D01*
X195989605Y-49910000D01*
X195630395Y-49910000D01*
X193087125Y-47366730D01*
X192594290Y-47730630D01*
X192011158Y-49112678D01*
X191781199Y-49038406D01*
X190909605Y-49910000D01*
X190550395Y-49910000D01*
X189678801Y-49038406D01*
X189460000Y-49109074D01*
X189241199Y-49038406D01*
X188369605Y-49910000D01*
X188010395Y-49910000D01*
X187138801Y-49038406D01*
X186886463Y-49119906D01*
X186683333Y-49678890D01*
X172670365Y-49678890D01*
X172670365Y-48858801D01*
X187318406Y-48858801D01*
X188190000Y-49730395D01*
X189061594Y-48858801D01*
X189858406Y-48858801D01*
X190730000Y-49730395D01*
X191601594Y-48858801D01*
X191520094Y-48606463D01*
X190961110Y-48403333D01*
X190366941Y-48429579D01*
X189939906Y-48606463D01*
X189858406Y-48858801D01*
X189061594Y-48858801D01*
X188980094Y-48606463D01*
X188421110Y-48403333D01*
X187826941Y-48429579D01*
X187399906Y-48606463D01*
X187318406Y-48858801D01*
X172670365Y-48858801D01*
X172670365Y-47187125D01*
X193266730Y-47187125D01*
X195810000Y-49730395D01*
X198353270Y-47187125D01*
X197989370Y-46694290D01*
X196592876Y-46105063D01*
X195077197Y-46095102D01*
X193673080Y-46665926D01*
X193630630Y-46694290D01*
X193266730Y-47187125D01*
X172670365Y-47187125D01*
X172670365Y-46600000D01*
X172640591Y-46441763D01*
X172547073Y-46296433D01*
X172404381Y-46198936D01*
X172235000Y-46164635D01*
X165765000Y-46164635D01*
X165606763Y-46194409D01*
X165461433Y-46287927D01*
X165363936Y-46430619D01*
X165329635Y-46600000D01*
X165329635Y-47403000D01*
X148622969Y-47403000D01*
X148208115Y-47125804D01*
X147088001Y-46902998D01*
X147087996Y-46902999D01*
X140670365Y-46902999D01*
X140670365Y-46600000D01*
X140640591Y-46441763D01*
X140547073Y-46296433D01*
X140404381Y-46198936D01*
X140235000Y-46164635D01*
X133765000Y-46164635D01*
X133606763Y-46194409D01*
X133461433Y-46287927D01*
X133363936Y-46430619D01*
X133329635Y-46600000D01*
X133329635Y-47403000D01*
X128765000Y-47403000D01*
X127644885Y-47625805D01*
X127264534Y-47879947D01*
X126695298Y-48260298D01*
X126695296Y-48260301D01*
X115025298Y-59930298D01*
X114390805Y-60879886D01*
X114167999Y-62000000D01*
X105502000Y-62000000D01*
X105502000Y-55172875D01*
X107536730Y-55172875D01*
X107900630Y-55665710D01*
X109297124Y-56254937D01*
X110812803Y-56264898D01*
X112216920Y-55694074D01*
X112259370Y-55665710D01*
X112623270Y-55172875D01*
X110080000Y-52629605D01*
X107536730Y-55172875D01*
X105502000Y-55172875D01*
X105502000Y-53182803D01*
X106265102Y-53182803D01*
X106835926Y-54586920D01*
X106864290Y-54629370D01*
X107357125Y-54993270D01*
X109900395Y-52450000D01*
X110259605Y-52450000D01*
X112802875Y-54993270D01*
X113295710Y-54629370D01*
X113884937Y-53232876D01*
X113894898Y-51717197D01*
X113324074Y-50313080D01*
X113295710Y-50270630D01*
X112802875Y-49906730D01*
X110259605Y-52450000D01*
X109900395Y-52450000D01*
X107357125Y-49906730D01*
X106864290Y-50270630D01*
X106275063Y-51667124D01*
X106265102Y-53182803D01*
X105502000Y-53182803D01*
X105502000Y-49727125D01*
X107536730Y-49727125D01*
X110080000Y-52270395D01*
X112623270Y-49727125D01*
X112259370Y-49234290D01*
X110862876Y-48645063D01*
X109347197Y-48635102D01*
X107943080Y-49205926D01*
X107900630Y-49234290D01*
X107536730Y-49727125D01*
X105502000Y-49727125D01*
X105502000Y-45332000D01*
X200388000Y-45332000D01*
X200388000Y-134498000D01*
M02*
