G04 #@! TF.FileFunction,Legend,Bot*
%FSLAX46Y46*%
G04 Gerber Fmt 4.6, Leading zero omitted, Abs format (unit mm)*
G04 Created by KiCad (PCBNEW 4.0.7-e2-6376~58~ubuntu16.04.1) date Thu Mar 22 01:15:54 2018*
%MOMM*%
%LPD*%
G01*
G04 APERTURE LIST*
%ADD10C,0.100000*%
%ADD11C,0.200000*%
%ADD12C,0.150000*%
%ADD13C,0.010000*%
G04 APERTURE END LIST*
D10*
D11*
X113017857Y-86457142D02*
X112946429Y-86242856D01*
X112946429Y-85885713D01*
X113017857Y-85742856D01*
X113089286Y-85671427D01*
X113232143Y-85599999D01*
X113375000Y-85599999D01*
X113517857Y-85671427D01*
X113589286Y-85742856D01*
X113660714Y-85885713D01*
X113732143Y-86171427D01*
X113803571Y-86314285D01*
X113875000Y-86385713D01*
X114017857Y-86457142D01*
X114160714Y-86457142D01*
X114303571Y-86385713D01*
X114375000Y-86314285D01*
X114446429Y-86171427D01*
X114446429Y-85814285D01*
X114375000Y-85599999D01*
X113732143Y-84457142D02*
X113732143Y-84957142D01*
X112946429Y-84957142D02*
X114446429Y-84957142D01*
X114446429Y-84242856D01*
X114446429Y-83671428D02*
X113232143Y-83671428D01*
X113089286Y-83600000D01*
X113017857Y-83528571D01*
X112946429Y-83385714D01*
X112946429Y-83100000D01*
X113017857Y-82957142D01*
X113089286Y-82885714D01*
X113232143Y-82814285D01*
X114446429Y-82814285D01*
X113017857Y-81028571D02*
X112946429Y-80814285D01*
X112946429Y-80457142D01*
X113017857Y-80314285D01*
X113089286Y-80242856D01*
X113232143Y-80171428D01*
X113375000Y-80171428D01*
X113517857Y-80242856D01*
X113589286Y-80314285D01*
X113660714Y-80457142D01*
X113732143Y-80742856D01*
X113803571Y-80885714D01*
X113875000Y-80957142D01*
X114017857Y-81028571D01*
X114160714Y-81028571D01*
X114303571Y-80957142D01*
X114375000Y-80885714D01*
X114446429Y-80742856D01*
X114446429Y-80385714D01*
X114375000Y-80171428D01*
X112946429Y-78885714D02*
X113732143Y-78885714D01*
X113875000Y-78957143D01*
X113946429Y-79100000D01*
X113946429Y-79385714D01*
X113875000Y-79528571D01*
X113017857Y-78885714D02*
X112946429Y-79028571D01*
X112946429Y-79385714D01*
X113017857Y-79528571D01*
X113160714Y-79600000D01*
X113303571Y-79600000D01*
X113446429Y-79528571D01*
X113517857Y-79385714D01*
X113517857Y-79028571D01*
X113589286Y-78885714D01*
X113946429Y-78385714D02*
X113946429Y-77814285D01*
X114446429Y-78171428D02*
X113160714Y-78171428D01*
X113017857Y-78100000D01*
X112946429Y-77957142D01*
X112946429Y-77814285D01*
X113017857Y-76742857D02*
X112946429Y-76885714D01*
X112946429Y-77171428D01*
X113017857Y-77314285D01*
X113160714Y-77385714D01*
X113732143Y-77385714D01*
X113875000Y-77314285D01*
X113946429Y-77171428D01*
X113946429Y-76885714D01*
X113875000Y-76742857D01*
X113732143Y-76671428D01*
X113589286Y-76671428D01*
X113446429Y-77385714D01*
X112946429Y-75814285D02*
X113017857Y-75957143D01*
X113160714Y-76028571D01*
X114446429Y-76028571D01*
X112946429Y-75028571D02*
X113017857Y-75171429D01*
X113160714Y-75242857D01*
X114446429Y-75242857D01*
X112946429Y-74457143D02*
X113946429Y-74457143D01*
X114446429Y-74457143D02*
X114375000Y-74528572D01*
X114303571Y-74457143D01*
X114375000Y-74385715D01*
X114446429Y-74457143D01*
X114303571Y-74457143D01*
X113946429Y-73957143D02*
X113946429Y-73385714D01*
X114446429Y-73742857D02*
X113160714Y-73742857D01*
X113017857Y-73671429D01*
X112946429Y-73528571D01*
X112946429Y-73385714D01*
X113017857Y-72314286D02*
X112946429Y-72457143D01*
X112946429Y-72742857D01*
X113017857Y-72885714D01*
X113160714Y-72957143D01*
X113732143Y-72957143D01*
X113875000Y-72885714D01*
X113946429Y-72742857D01*
X113946429Y-72457143D01*
X113875000Y-72314286D01*
X113732143Y-72242857D01*
X113589286Y-72242857D01*
X113446429Y-72957143D01*
X112946429Y-70457143D02*
X114446429Y-70457143D01*
X114446429Y-70100000D01*
X114375000Y-69885715D01*
X114232143Y-69742857D01*
X114089286Y-69671429D01*
X113803571Y-69600000D01*
X113589286Y-69600000D01*
X113303571Y-69671429D01*
X113160714Y-69742857D01*
X113017857Y-69885715D01*
X112946429Y-70100000D01*
X112946429Y-70457143D01*
X113017857Y-68385715D02*
X112946429Y-68528572D01*
X112946429Y-68814286D01*
X113017857Y-68957143D01*
X113160714Y-69028572D01*
X113732143Y-69028572D01*
X113875000Y-68957143D01*
X113946429Y-68814286D01*
X113946429Y-68528572D01*
X113875000Y-68385715D01*
X113732143Y-68314286D01*
X113589286Y-68314286D01*
X113446429Y-69028572D01*
X113017857Y-67742858D02*
X112946429Y-67600001D01*
X112946429Y-67314286D01*
X113017857Y-67171429D01*
X113160714Y-67100001D01*
X113232143Y-67100001D01*
X113375000Y-67171429D01*
X113446429Y-67314286D01*
X113446429Y-67528572D01*
X113517857Y-67671429D01*
X113660714Y-67742858D01*
X113732143Y-67742858D01*
X113875000Y-67671429D01*
X113946429Y-67528572D01*
X113946429Y-67314286D01*
X113875000Y-67171429D01*
X112946429Y-66457143D02*
X113946429Y-66457143D01*
X114446429Y-66457143D02*
X114375000Y-66528572D01*
X114303571Y-66457143D01*
X114375000Y-66385715D01*
X114446429Y-66457143D01*
X114303571Y-66457143D01*
X113946429Y-65100000D02*
X112732143Y-65100000D01*
X112589286Y-65171429D01*
X112517857Y-65242857D01*
X112446429Y-65385714D01*
X112446429Y-65600000D01*
X112517857Y-65742857D01*
X113017857Y-65100000D02*
X112946429Y-65242857D01*
X112946429Y-65528571D01*
X113017857Y-65671429D01*
X113089286Y-65742857D01*
X113232143Y-65814286D01*
X113660714Y-65814286D01*
X113803571Y-65742857D01*
X113875000Y-65671429D01*
X113946429Y-65528571D01*
X113946429Y-65242857D01*
X113875000Y-65100000D01*
X113946429Y-64385714D02*
X112946429Y-64385714D01*
X113803571Y-64385714D02*
X113875000Y-64314286D01*
X113946429Y-64171428D01*
X113946429Y-63957143D01*
X113875000Y-63814286D01*
X113732143Y-63742857D01*
X112946429Y-63742857D01*
X114446429Y-62100000D02*
X114446429Y-61242857D01*
X112946429Y-61671428D02*
X114446429Y-61671428D01*
X113017857Y-60171429D02*
X112946429Y-60314286D01*
X112946429Y-60600000D01*
X113017857Y-60742857D01*
X113160714Y-60814286D01*
X113732143Y-60814286D01*
X113875000Y-60742857D01*
X113946429Y-60600000D01*
X113946429Y-60314286D01*
X113875000Y-60171429D01*
X113732143Y-60100000D01*
X113589286Y-60100000D01*
X113446429Y-60814286D01*
X112946429Y-58814286D02*
X113732143Y-58814286D01*
X113875000Y-58885715D01*
X113946429Y-59028572D01*
X113946429Y-59314286D01*
X113875000Y-59457143D01*
X113017857Y-58814286D02*
X112946429Y-58957143D01*
X112946429Y-59314286D01*
X113017857Y-59457143D01*
X113160714Y-59528572D01*
X113303571Y-59528572D01*
X113446429Y-59457143D01*
X113517857Y-59314286D01*
X113517857Y-58957143D01*
X113589286Y-58814286D01*
X112946429Y-58100000D02*
X113946429Y-58100000D01*
X113803571Y-58100000D02*
X113875000Y-58028572D01*
X113946429Y-57885714D01*
X113946429Y-57671429D01*
X113875000Y-57528572D01*
X113732143Y-57457143D01*
X112946429Y-57457143D01*
X113732143Y-57457143D02*
X113875000Y-57385714D01*
X113946429Y-57242857D01*
X113946429Y-57028572D01*
X113875000Y-56885714D01*
X113732143Y-56814286D01*
X112946429Y-56814286D01*
X111282143Y-82707142D02*
X111210714Y-82492856D01*
X111139286Y-82421428D01*
X110996429Y-82349999D01*
X110782143Y-82349999D01*
X110639286Y-82421428D01*
X110567857Y-82492856D01*
X110496429Y-82635714D01*
X110496429Y-83207142D01*
X111996429Y-83207142D01*
X111996429Y-82707142D01*
X111925000Y-82564285D01*
X111853571Y-82492856D01*
X111710714Y-82421428D01*
X111567857Y-82421428D01*
X111425000Y-82492856D01*
X111353571Y-82564285D01*
X111282143Y-82707142D01*
X111282143Y-83207142D01*
X110496429Y-81064285D02*
X111282143Y-81064285D01*
X111425000Y-81135714D01*
X111496429Y-81278571D01*
X111496429Y-81564285D01*
X111425000Y-81707142D01*
X110567857Y-81064285D02*
X110496429Y-81207142D01*
X110496429Y-81564285D01*
X110567857Y-81707142D01*
X110710714Y-81778571D01*
X110853571Y-81778571D01*
X110996429Y-81707142D01*
X111067857Y-81564285D01*
X111067857Y-81207142D01*
X111139286Y-81064285D01*
X111496429Y-80564285D02*
X111496429Y-79992856D01*
X111996429Y-80349999D02*
X110710714Y-80349999D01*
X110567857Y-80278571D01*
X110496429Y-80135713D01*
X110496429Y-79992856D01*
X111496429Y-79707142D02*
X111496429Y-79135713D01*
X111996429Y-79492856D02*
X110710714Y-79492856D01*
X110567857Y-79421428D01*
X110496429Y-79278570D01*
X110496429Y-79135713D01*
X110567857Y-78064285D02*
X110496429Y-78207142D01*
X110496429Y-78492856D01*
X110567857Y-78635713D01*
X110710714Y-78707142D01*
X111282143Y-78707142D01*
X111425000Y-78635713D01*
X111496429Y-78492856D01*
X111496429Y-78207142D01*
X111425000Y-78064285D01*
X111282143Y-77992856D01*
X111139286Y-77992856D01*
X110996429Y-78707142D01*
X110496429Y-77349999D02*
X111496429Y-77349999D01*
X111210714Y-77349999D02*
X111353571Y-77278571D01*
X111425000Y-77207142D01*
X111496429Y-77064285D01*
X111496429Y-76921428D01*
X111496429Y-76564285D02*
X110496429Y-76207142D01*
X111496429Y-75850000D02*
X110496429Y-76207142D01*
X110139286Y-76350000D01*
X110067857Y-76421428D01*
X109996429Y-76564285D01*
X111282143Y-73635714D02*
X111210714Y-73421428D01*
X111139286Y-73350000D01*
X110996429Y-73278571D01*
X110782143Y-73278571D01*
X110639286Y-73350000D01*
X110567857Y-73421428D01*
X110496429Y-73564286D01*
X110496429Y-74135714D01*
X111996429Y-74135714D01*
X111996429Y-73635714D01*
X111925000Y-73492857D01*
X111853571Y-73421428D01*
X111710714Y-73350000D01*
X111567857Y-73350000D01*
X111425000Y-73421428D01*
X111353571Y-73492857D01*
X111282143Y-73635714D01*
X111282143Y-74135714D01*
X110496429Y-72421428D02*
X110567857Y-72564286D01*
X110639286Y-72635714D01*
X110782143Y-72707143D01*
X111210714Y-72707143D01*
X111353571Y-72635714D01*
X111425000Y-72564286D01*
X111496429Y-72421428D01*
X111496429Y-72207143D01*
X111425000Y-72064286D01*
X111353571Y-71992857D01*
X111210714Y-71921428D01*
X110782143Y-71921428D01*
X110639286Y-71992857D01*
X110567857Y-72064286D01*
X110496429Y-72207143D01*
X110496429Y-72421428D01*
X110496429Y-70635714D02*
X111282143Y-70635714D01*
X111425000Y-70707143D01*
X111496429Y-70850000D01*
X111496429Y-71135714D01*
X111425000Y-71278571D01*
X110567857Y-70635714D02*
X110496429Y-70778571D01*
X110496429Y-71135714D01*
X110567857Y-71278571D01*
X110710714Y-71350000D01*
X110853571Y-71350000D01*
X110996429Y-71278571D01*
X111067857Y-71135714D01*
X111067857Y-70778571D01*
X111139286Y-70635714D01*
X110496429Y-69921428D02*
X111496429Y-69921428D01*
X111210714Y-69921428D02*
X111353571Y-69850000D01*
X111425000Y-69778571D01*
X111496429Y-69635714D01*
X111496429Y-69492857D01*
X110496429Y-68350000D02*
X111996429Y-68350000D01*
X110567857Y-68350000D02*
X110496429Y-68492857D01*
X110496429Y-68778571D01*
X110567857Y-68921429D01*
X110639286Y-68992857D01*
X110782143Y-69064286D01*
X111210714Y-69064286D01*
X111353571Y-68992857D01*
X111425000Y-68921429D01*
X111496429Y-68778571D01*
X111496429Y-68492857D01*
X111425000Y-68350000D01*
X110496429Y-65635714D02*
X111210714Y-66135714D01*
X110496429Y-66492857D02*
X111996429Y-66492857D01*
X111996429Y-65921429D01*
X111925000Y-65778571D01*
X111853571Y-65707143D01*
X111710714Y-65635714D01*
X111496429Y-65635714D01*
X111353571Y-65707143D01*
X111282143Y-65778571D01*
X111210714Y-65921429D01*
X111210714Y-66492857D01*
X110567857Y-64421429D02*
X110496429Y-64564286D01*
X110496429Y-64850000D01*
X110567857Y-64992857D01*
X110710714Y-65064286D01*
X111282143Y-65064286D01*
X111425000Y-64992857D01*
X111496429Y-64850000D01*
X111496429Y-64564286D01*
X111425000Y-64421429D01*
X111282143Y-64350000D01*
X111139286Y-64350000D01*
X110996429Y-65064286D01*
X111496429Y-63850000D02*
X110496429Y-63492857D01*
X111496429Y-63135715D01*
X110639286Y-62564286D02*
X110567857Y-62492858D01*
X110496429Y-62564286D01*
X110567857Y-62635715D01*
X110639286Y-62564286D01*
X110496429Y-62564286D01*
X110496429Y-59921429D02*
X110496429Y-60778572D01*
X110496429Y-60350000D02*
X111996429Y-60350000D01*
X111782143Y-60492857D01*
X111639286Y-60635715D01*
X111567857Y-60778572D01*
D12*
X117219048Y-94085714D02*
X117219048Y-95085714D01*
X117219048Y-94133333D02*
X117123810Y-94085714D01*
X116933333Y-94085714D01*
X116838095Y-94133333D01*
X116790476Y-94180952D01*
X116742857Y-94276190D01*
X116742857Y-94561905D01*
X116790476Y-94657143D01*
X116838095Y-94704762D01*
X116933333Y-94752381D01*
X117123810Y-94752381D01*
X117219048Y-94704762D01*
X115885714Y-94752381D02*
X115885714Y-94228571D01*
X115933333Y-94133333D01*
X116028571Y-94085714D01*
X116219048Y-94085714D01*
X116314286Y-94133333D01*
X115885714Y-94704762D02*
X115980952Y-94752381D01*
X116219048Y-94752381D01*
X116314286Y-94704762D01*
X116361905Y-94609524D01*
X116361905Y-94514286D01*
X116314286Y-94419048D01*
X116219048Y-94371429D01*
X115980952Y-94371429D01*
X115885714Y-94323810D01*
X114980952Y-94704762D02*
X115076190Y-94752381D01*
X115266667Y-94752381D01*
X115361905Y-94704762D01*
X115409524Y-94657143D01*
X115457143Y-94561905D01*
X115457143Y-94276190D01*
X115409524Y-94180952D01*
X115361905Y-94133333D01*
X115266667Y-94085714D01*
X115076190Y-94085714D01*
X114980952Y-94133333D01*
X114552381Y-94752381D02*
X114552381Y-93752381D01*
X114457143Y-94371429D02*
X114171428Y-94752381D01*
X114171428Y-94085714D02*
X114552381Y-94466667D01*
X113742857Y-94371429D02*
X112980952Y-94371429D01*
X113361904Y-94752381D02*
X113361904Y-93990476D01*
X113519048Y-95685714D02*
X113519048Y-96685714D01*
X113519048Y-95733333D02*
X113423810Y-95685714D01*
X113233333Y-95685714D01*
X113138095Y-95733333D01*
X113090476Y-95780952D01*
X113042857Y-95876190D01*
X113042857Y-96161905D01*
X113090476Y-96257143D01*
X113138095Y-96304762D01*
X113233333Y-96352381D01*
X113423810Y-96352381D01*
X113519048Y-96304762D01*
X112185714Y-96352381D02*
X112185714Y-95828571D01*
X112233333Y-95733333D01*
X112328571Y-95685714D01*
X112519048Y-95685714D01*
X112614286Y-95733333D01*
X112185714Y-96304762D02*
X112280952Y-96352381D01*
X112519048Y-96352381D01*
X112614286Y-96304762D01*
X112661905Y-96209524D01*
X112661905Y-96114286D01*
X112614286Y-96019048D01*
X112519048Y-95971429D01*
X112280952Y-95971429D01*
X112185714Y-95923810D01*
X111280952Y-96304762D02*
X111376190Y-96352381D01*
X111566667Y-96352381D01*
X111661905Y-96304762D01*
X111709524Y-96257143D01*
X111757143Y-96161905D01*
X111757143Y-95876190D01*
X111709524Y-95780952D01*
X111661905Y-95733333D01*
X111566667Y-95685714D01*
X111376190Y-95685714D01*
X111280952Y-95733333D01*
X110852381Y-96352381D02*
X110852381Y-95352381D01*
X110757143Y-95971429D02*
X110471428Y-96352381D01*
X110471428Y-95685714D02*
X110852381Y-96066667D01*
X110042857Y-95971429D02*
X109280952Y-95971429D01*
X109600001Y-94952381D02*
X109600001Y-94285714D01*
X109600001Y-94476190D02*
X109552382Y-94380952D01*
X109504763Y-94333333D01*
X109409525Y-94285714D01*
X109314286Y-94285714D01*
X108600000Y-94904762D02*
X108695238Y-94952381D01*
X108885715Y-94952381D01*
X108980953Y-94904762D01*
X109028572Y-94809524D01*
X109028572Y-94428571D01*
X108980953Y-94333333D01*
X108885715Y-94285714D01*
X108695238Y-94285714D01*
X108600000Y-94333333D01*
X108552381Y-94428571D01*
X108552381Y-94523810D01*
X109028572Y-94619048D01*
X108266667Y-94285714D02*
X107885715Y-94285714D01*
X108123810Y-93952381D02*
X108123810Y-94809524D01*
X108076191Y-94904762D01*
X107980953Y-94952381D01*
X107885715Y-94952381D01*
X107123809Y-94285714D02*
X107123809Y-94952381D01*
X107552381Y-94285714D02*
X107552381Y-94809524D01*
X107504762Y-94904762D01*
X107409524Y-94952381D01*
X107266666Y-94952381D01*
X107171428Y-94904762D01*
X107123809Y-94857143D01*
X106647619Y-94952381D02*
X106647619Y-94285714D01*
X106647619Y-94476190D02*
X106600000Y-94380952D01*
X106552381Y-94333333D01*
X106457143Y-94285714D01*
X106361904Y-94285714D01*
X106028571Y-94285714D02*
X106028571Y-94952381D01*
X106028571Y-94380952D02*
X105980952Y-94333333D01*
X105885714Y-94285714D01*
X105742856Y-94285714D01*
X105647618Y-94333333D01*
X105599999Y-94428571D01*
X105599999Y-94952381D01*
X107050000Y-87650000D02*
X116950000Y-87650000D01*
X117000000Y-93400000D02*
X117000000Y-87650000D01*
X107050000Y-93400000D02*
X116950000Y-93400000D01*
X107000000Y-93400000D02*
X107000000Y-87650000D01*
D13*
G36*
X125440311Y-70456464D02*
X125254930Y-70338590D01*
X124989383Y-70188642D01*
X124896167Y-70139005D01*
X124603477Y-69982608D01*
X124369527Y-69852622D01*
X124234515Y-69771536D01*
X124219873Y-69760620D01*
X124217388Y-69658887D01*
X124285771Y-69470576D01*
X124325707Y-69390613D01*
X124430713Y-69178783D01*
X124489480Y-69029352D01*
X124494000Y-69004285D01*
X124419219Y-68975941D01*
X124227182Y-68982452D01*
X124070667Y-69003978D01*
X123710884Y-69065205D01*
X123330745Y-69129921D01*
X123230308Y-69147025D01*
X122977670Y-69181926D01*
X122844392Y-69169912D01*
X122785085Y-69103212D01*
X122774292Y-69068952D01*
X122808940Y-68903909D01*
X122963748Y-68701283D01*
X122979651Y-68685754D01*
X123131174Y-68558183D01*
X123218441Y-68518697D01*
X123226575Y-68530993D01*
X123262108Y-68534416D01*
X123321091Y-68452084D01*
X123351209Y-68288568D01*
X123230956Y-68182667D01*
X122988251Y-68145963D01*
X122877550Y-68133763D01*
X122828065Y-68071182D01*
X122827003Y-67916322D01*
X122852118Y-67700166D01*
X122899538Y-67403123D01*
X122955814Y-67146832D01*
X122983527Y-67055729D01*
X123020085Y-66922142D01*
X122965051Y-66879043D01*
X122781091Y-66897218D01*
X122780993Y-66897232D01*
X122534162Y-66945307D01*
X122220111Y-67020548D01*
X122063557Y-67062635D01*
X121622780Y-67186596D01*
X121506317Y-66894602D01*
X121389855Y-66602608D01*
X120976111Y-67098471D01*
X120774754Y-67340489D01*
X120619082Y-67528904D01*
X120537957Y-67628751D01*
X120533477Y-67634651D01*
X120468796Y-67589009D01*
X120304577Y-67438455D01*
X120058544Y-67200235D01*
X119748421Y-66891596D01*
X119391933Y-66529787D01*
X119280543Y-66415457D01*
X118912853Y-66041305D01*
X118585021Y-65715684D01*
X118315025Y-65455799D01*
X118120847Y-65278856D01*
X118020465Y-65202060D01*
X118011434Y-65201011D01*
X118019303Y-65296191D01*
X118094987Y-65476414D01*
X118124014Y-65531204D01*
X118230038Y-65745812D01*
X118369753Y-66059087D01*
X118516778Y-66411373D01*
X118549655Y-66493666D01*
X118967395Y-67775810D01*
X119222800Y-69089689D01*
X119316350Y-70420514D01*
X119248526Y-71753495D01*
X119019809Y-73073843D01*
X118630679Y-74366768D01*
X118265221Y-75243047D01*
X118130472Y-75538542D01*
X118029863Y-75773155D01*
X117980467Y-75906606D01*
X117978139Y-75920380D01*
X118031052Y-75893512D01*
X118165498Y-75767875D01*
X118329490Y-75595333D01*
X118496209Y-75390597D01*
X118496209Y-75205963D01*
X118481344Y-75163227D01*
X118524778Y-74999750D01*
X118617150Y-74750019D01*
X118625584Y-74729277D01*
X118773827Y-74339258D01*
X118922543Y-73904781D01*
X119001840Y-73648000D01*
X119221201Y-72689774D01*
X119360966Y-71640108D01*
X119417819Y-70558500D01*
X119388447Y-69504445D01*
X119282446Y-68610333D01*
X119196622Y-68208515D01*
X119064255Y-67703323D01*
X118901659Y-67148619D01*
X118725152Y-66598264D01*
X118551049Y-66106117D01*
X118437119Y-65819866D01*
X118469647Y-65824348D01*
X118602437Y-65935807D01*
X118818894Y-66138668D01*
X119102425Y-66417356D01*
X119436437Y-66756296D01*
X119453329Y-66773684D01*
X120540308Y-67893302D01*
X120687817Y-67659151D01*
X120839177Y-67443413D01*
X121034391Y-67194616D01*
X121089897Y-67128666D01*
X121344469Y-66832333D01*
X121451158Y-67065166D01*
X121516751Y-67198583D01*
X121587657Y-67268929D01*
X121704052Y-67281076D01*
X121906114Y-67239891D01*
X122209458Y-67157069D01*
X122482951Y-67091630D01*
X122688018Y-67062208D01*
X122772103Y-67071881D01*
X122785534Y-67178612D01*
X122761759Y-67395572D01*
X122723804Y-67592535D01*
X122665596Y-67919724D01*
X122675364Y-68116424D01*
X122760076Y-68210103D01*
X122885334Y-68229333D01*
X123051303Y-68264220D01*
X123069431Y-68371374D01*
X122939400Y-68554534D01*
X122849680Y-68646192D01*
X122678702Y-68827868D01*
X122615705Y-68961548D01*
X122637730Y-69106605D01*
X122654032Y-69152141D01*
X122741449Y-69383734D01*
X123342558Y-69273030D01*
X123671202Y-69211151D01*
X123956456Y-69155066D01*
X124136899Y-69116853D01*
X124137624Y-69116682D01*
X124264017Y-69095234D01*
X124285966Y-69142274D01*
X124215215Y-69296017D01*
X124201124Y-69323315D01*
X124104663Y-69544469D01*
X124095487Y-69711325D01*
X124191762Y-69856629D01*
X124411655Y-70013129D01*
X124661896Y-70153921D01*
X124938812Y-70309964D01*
X125146673Y-70439647D01*
X125249483Y-70520124D01*
X125254563Y-70530104D01*
X125185255Y-70592877D01*
X125000895Y-70706120D01*
X124739087Y-70847025D01*
X124696189Y-70868771D01*
X124417333Y-71020661D01*
X124202885Y-71159197D01*
X124095055Y-71256800D01*
X124091511Y-71263862D01*
X124096089Y-71409769D01*
X124165005Y-71623451D01*
X124184286Y-71666029D01*
X124267676Y-71853983D01*
X124271072Y-71935261D01*
X124190729Y-71954380D01*
X124160011Y-71954666D01*
X123987646Y-71909556D01*
X123812427Y-71758369D01*
X123608583Y-71477320D01*
X123561302Y-71402125D01*
X123438219Y-71225431D01*
X123350425Y-71139841D01*
X123333181Y-71139930D01*
X123354564Y-71225638D01*
X123452431Y-71404272D01*
X123560416Y-71570395D01*
X123865774Y-72074466D01*
X124107060Y-72592640D01*
X124260202Y-73070030D01*
X124291361Y-73237087D01*
X124309868Y-73501516D01*
X124260794Y-73685691D01*
X124138553Y-73854927D01*
X123955874Y-74016917D01*
X123722401Y-74103390D01*
X123505186Y-74134255D01*
X123215463Y-74142578D01*
X123044375Y-74105072D01*
X123018937Y-74082018D01*
X123020767Y-74022357D01*
X123082719Y-74035235D01*
X123235021Y-74034742D01*
X123255079Y-74029323D01*
X123255079Y-73849159D01*
X123040292Y-73843856D01*
X122935954Y-73780193D01*
X122883815Y-73614458D01*
X122874180Y-73563333D01*
X122830423Y-73232659D01*
X122852719Y-73030834D01*
X122949302Y-72927547D01*
X123054667Y-72899054D01*
X123259227Y-72844329D01*
X123362193Y-72789380D01*
X123362193Y-72606696D01*
X123283253Y-72575436D01*
X123112155Y-72453633D01*
X122881557Y-72265178D01*
X122808029Y-72201304D01*
X122574171Y-71990406D01*
X122402981Y-71826302D01*
X122323076Y-71736767D01*
X122321107Y-71728671D01*
X122409242Y-71733595D01*
X122597398Y-71775474D01*
X122646717Y-71788696D01*
X122932579Y-71935478D01*
X123177465Y-72217504D01*
X123301360Y-72425067D01*
X123363260Y-72570479D01*
X123362193Y-72606696D01*
X123362193Y-72789380D01*
X123368107Y-72786223D01*
X123457164Y-72777379D01*
X123553430Y-72911353D01*
X123600940Y-73016342D01*
X123715210Y-73378585D01*
X123704572Y-73631683D01*
X123565187Y-73784880D01*
X123293217Y-73847419D01*
X123255079Y-73849159D01*
X123255079Y-74029323D01*
X123457949Y-73974505D01*
X123510450Y-73953919D01*
X123708352Y-73854196D01*
X123795537Y-73733215D01*
X123816487Y-73522214D01*
X123816667Y-73480572D01*
X123763910Y-73164697D01*
X123617514Y-72763011D01*
X123395290Y-72317186D01*
X123148809Y-71917990D01*
X122999693Y-71750427D01*
X122805673Y-71666487D01*
X122594067Y-71637290D01*
X122347561Y-71633270D01*
X122231222Y-71681059D01*
X122246917Y-71792237D01*
X122396512Y-71978385D01*
X122681872Y-72251085D01*
X122694834Y-72262783D01*
X122939367Y-72486098D01*
X123062790Y-72625222D01*
X123067949Y-72711326D01*
X122957690Y-72775580D01*
X122748011Y-72844970D01*
X122658257Y-72916331D01*
X122653618Y-73076368D01*
X122669897Y-73162470D01*
X122725285Y-73447271D01*
X122774799Y-73744625D01*
X122820493Y-74052916D01*
X122200079Y-73882794D01*
X121877093Y-73805402D01*
X121651136Y-73774098D01*
X121553083Y-73793050D01*
X121552113Y-73795329D01*
X121482842Y-73926984D01*
X121416235Y-74026130D01*
X121361416Y-74076096D01*
X121290617Y-74068575D01*
X121184141Y-73986503D01*
X121022289Y-73812818D01*
X120785363Y-73530458D01*
X120643965Y-73357193D01*
X120388054Y-73052472D01*
X120168665Y-72810372D01*
X120007661Y-72653666D01*
X119926903Y-72605124D01*
X119923974Y-72607223D01*
X119868726Y-72713943D01*
X119773356Y-72935511D01*
X119656599Y-73228000D01*
X119632894Y-73289665D01*
X119500826Y-73592056D01*
X119320914Y-73946496D01*
X119114929Y-74316282D01*
X118904641Y-74664711D01*
X118711820Y-74955083D01*
X118558237Y-75150694D01*
X118496209Y-75205963D01*
X118496209Y-75390597D01*
X118728284Y-75105600D01*
X119120084Y-74531027D01*
X119463899Y-73936669D01*
X119715640Y-73395499D01*
X119833216Y-73111909D01*
X119931883Y-72902985D01*
X119993182Y-72807217D01*
X119998876Y-72804969D01*
X120067494Y-72869173D01*
X120217443Y-73041366D01*
X120426697Y-73295404D01*
X120673232Y-73605143D01*
X120676492Y-73609303D01*
X120977406Y-73985927D01*
X121192645Y-74235453D01*
X121334477Y-74368919D01*
X121415169Y-74397364D01*
X121446987Y-74331825D01*
X121448693Y-74304166D01*
X121498694Y-74155214D01*
X121565798Y-74047517D01*
X121669523Y-73954157D01*
X121816554Y-73939824D01*
X122007605Y-73978409D01*
X122268547Y-74043649D01*
X122609940Y-74129151D01*
X122885333Y-74198208D01*
X123415432Y-74277034D01*
X123839095Y-74227536D01*
X124149698Y-74058179D01*
X124340614Y-73777431D01*
X124405217Y-73393757D01*
X124336882Y-72915625D01*
X124201263Y-72516704D01*
X123997212Y-72020409D01*
X124245606Y-72070088D01*
X124408293Y-72096861D01*
X124475264Y-72071547D01*
X124452280Y-71963177D01*
X124345101Y-71740780D01*
X124317087Y-71685808D01*
X124233722Y-71523284D01*
X124195680Y-71408149D01*
X124222902Y-71314669D01*
X124335333Y-71217109D01*
X124552914Y-71089736D01*
X124895590Y-70906814D01*
X124938500Y-70883946D01*
X125210428Y-70731728D01*
X125412174Y-70605208D01*
X125507070Y-70527724D01*
X125510000Y-70520203D01*
X125440311Y-70456464D01*
X125440311Y-70456464D01*
G37*
X125440311Y-70456464D02*
X125254930Y-70338590D01*
X124989383Y-70188642D01*
X124896167Y-70139005D01*
X124603477Y-69982608D01*
X124369527Y-69852622D01*
X124234515Y-69771536D01*
X124219873Y-69760620D01*
X124217388Y-69658887D01*
X124285771Y-69470576D01*
X124325707Y-69390613D01*
X124430713Y-69178783D01*
X124489480Y-69029352D01*
X124494000Y-69004285D01*
X124419219Y-68975941D01*
X124227182Y-68982452D01*
X124070667Y-69003978D01*
X123710884Y-69065205D01*
X123330745Y-69129921D01*
X123230308Y-69147025D01*
X122977670Y-69181926D01*
X122844392Y-69169912D01*
X122785085Y-69103212D01*
X122774292Y-69068952D01*
X122808940Y-68903909D01*
X122963748Y-68701283D01*
X122979651Y-68685754D01*
X123131174Y-68558183D01*
X123218441Y-68518697D01*
X123226575Y-68530993D01*
X123262108Y-68534416D01*
X123321091Y-68452084D01*
X123351209Y-68288568D01*
X123230956Y-68182667D01*
X122988251Y-68145963D01*
X122877550Y-68133763D01*
X122828065Y-68071182D01*
X122827003Y-67916322D01*
X122852118Y-67700166D01*
X122899538Y-67403123D01*
X122955814Y-67146832D01*
X122983527Y-67055729D01*
X123020085Y-66922142D01*
X122965051Y-66879043D01*
X122781091Y-66897218D01*
X122780993Y-66897232D01*
X122534162Y-66945307D01*
X122220111Y-67020548D01*
X122063557Y-67062635D01*
X121622780Y-67186596D01*
X121506317Y-66894602D01*
X121389855Y-66602608D01*
X120976111Y-67098471D01*
X120774754Y-67340489D01*
X120619082Y-67528904D01*
X120537957Y-67628751D01*
X120533477Y-67634651D01*
X120468796Y-67589009D01*
X120304577Y-67438455D01*
X120058544Y-67200235D01*
X119748421Y-66891596D01*
X119391933Y-66529787D01*
X119280543Y-66415457D01*
X118912853Y-66041305D01*
X118585021Y-65715684D01*
X118315025Y-65455799D01*
X118120847Y-65278856D01*
X118020465Y-65202060D01*
X118011434Y-65201011D01*
X118019303Y-65296191D01*
X118094987Y-65476414D01*
X118124014Y-65531204D01*
X118230038Y-65745812D01*
X118369753Y-66059087D01*
X118516778Y-66411373D01*
X118549655Y-66493666D01*
X118967395Y-67775810D01*
X119222800Y-69089689D01*
X119316350Y-70420514D01*
X119248526Y-71753495D01*
X119019809Y-73073843D01*
X118630679Y-74366768D01*
X118265221Y-75243047D01*
X118130472Y-75538542D01*
X118029863Y-75773155D01*
X117980467Y-75906606D01*
X117978139Y-75920380D01*
X118031052Y-75893512D01*
X118165498Y-75767875D01*
X118329490Y-75595333D01*
X118496209Y-75390597D01*
X118496209Y-75205963D01*
X118481344Y-75163227D01*
X118524778Y-74999750D01*
X118617150Y-74750019D01*
X118625584Y-74729277D01*
X118773827Y-74339258D01*
X118922543Y-73904781D01*
X119001840Y-73648000D01*
X119221201Y-72689774D01*
X119360966Y-71640108D01*
X119417819Y-70558500D01*
X119388447Y-69504445D01*
X119282446Y-68610333D01*
X119196622Y-68208515D01*
X119064255Y-67703323D01*
X118901659Y-67148619D01*
X118725152Y-66598264D01*
X118551049Y-66106117D01*
X118437119Y-65819866D01*
X118469647Y-65824348D01*
X118602437Y-65935807D01*
X118818894Y-66138668D01*
X119102425Y-66417356D01*
X119436437Y-66756296D01*
X119453329Y-66773684D01*
X120540308Y-67893302D01*
X120687817Y-67659151D01*
X120839177Y-67443413D01*
X121034391Y-67194616D01*
X121089897Y-67128666D01*
X121344469Y-66832333D01*
X121451158Y-67065166D01*
X121516751Y-67198583D01*
X121587657Y-67268929D01*
X121704052Y-67281076D01*
X121906114Y-67239891D01*
X122209458Y-67157069D01*
X122482951Y-67091630D01*
X122688018Y-67062208D01*
X122772103Y-67071881D01*
X122785534Y-67178612D01*
X122761759Y-67395572D01*
X122723804Y-67592535D01*
X122665596Y-67919724D01*
X122675364Y-68116424D01*
X122760076Y-68210103D01*
X122885334Y-68229333D01*
X123051303Y-68264220D01*
X123069431Y-68371374D01*
X122939400Y-68554534D01*
X122849680Y-68646192D01*
X122678702Y-68827868D01*
X122615705Y-68961548D01*
X122637730Y-69106605D01*
X122654032Y-69152141D01*
X122741449Y-69383734D01*
X123342558Y-69273030D01*
X123671202Y-69211151D01*
X123956456Y-69155066D01*
X124136899Y-69116853D01*
X124137624Y-69116682D01*
X124264017Y-69095234D01*
X124285966Y-69142274D01*
X124215215Y-69296017D01*
X124201124Y-69323315D01*
X124104663Y-69544469D01*
X124095487Y-69711325D01*
X124191762Y-69856629D01*
X124411655Y-70013129D01*
X124661896Y-70153921D01*
X124938812Y-70309964D01*
X125146673Y-70439647D01*
X125249483Y-70520124D01*
X125254563Y-70530104D01*
X125185255Y-70592877D01*
X125000895Y-70706120D01*
X124739087Y-70847025D01*
X124696189Y-70868771D01*
X124417333Y-71020661D01*
X124202885Y-71159197D01*
X124095055Y-71256800D01*
X124091511Y-71263862D01*
X124096089Y-71409769D01*
X124165005Y-71623451D01*
X124184286Y-71666029D01*
X124267676Y-71853983D01*
X124271072Y-71935261D01*
X124190729Y-71954380D01*
X124160011Y-71954666D01*
X123987646Y-71909556D01*
X123812427Y-71758369D01*
X123608583Y-71477320D01*
X123561302Y-71402125D01*
X123438219Y-71225431D01*
X123350425Y-71139841D01*
X123333181Y-71139930D01*
X123354564Y-71225638D01*
X123452431Y-71404272D01*
X123560416Y-71570395D01*
X123865774Y-72074466D01*
X124107060Y-72592640D01*
X124260202Y-73070030D01*
X124291361Y-73237087D01*
X124309868Y-73501516D01*
X124260794Y-73685691D01*
X124138553Y-73854927D01*
X123955874Y-74016917D01*
X123722401Y-74103390D01*
X123505186Y-74134255D01*
X123215463Y-74142578D01*
X123044375Y-74105072D01*
X123018937Y-74082018D01*
X123020767Y-74022357D01*
X123082719Y-74035235D01*
X123235021Y-74034742D01*
X123255079Y-74029323D01*
X123255079Y-73849159D01*
X123040292Y-73843856D01*
X122935954Y-73780193D01*
X122883815Y-73614458D01*
X122874180Y-73563333D01*
X122830423Y-73232659D01*
X122852719Y-73030834D01*
X122949302Y-72927547D01*
X123054667Y-72899054D01*
X123259227Y-72844329D01*
X123362193Y-72789380D01*
X123362193Y-72606696D01*
X123283253Y-72575436D01*
X123112155Y-72453633D01*
X122881557Y-72265178D01*
X122808029Y-72201304D01*
X122574171Y-71990406D01*
X122402981Y-71826302D01*
X122323076Y-71736767D01*
X122321107Y-71728671D01*
X122409242Y-71733595D01*
X122597398Y-71775474D01*
X122646717Y-71788696D01*
X122932579Y-71935478D01*
X123177465Y-72217504D01*
X123301360Y-72425067D01*
X123363260Y-72570479D01*
X123362193Y-72606696D01*
X123362193Y-72789380D01*
X123368107Y-72786223D01*
X123457164Y-72777379D01*
X123553430Y-72911353D01*
X123600940Y-73016342D01*
X123715210Y-73378585D01*
X123704572Y-73631683D01*
X123565187Y-73784880D01*
X123293217Y-73847419D01*
X123255079Y-73849159D01*
X123255079Y-74029323D01*
X123457949Y-73974505D01*
X123510450Y-73953919D01*
X123708352Y-73854196D01*
X123795537Y-73733215D01*
X123816487Y-73522214D01*
X123816667Y-73480572D01*
X123763910Y-73164697D01*
X123617514Y-72763011D01*
X123395290Y-72317186D01*
X123148809Y-71917990D01*
X122999693Y-71750427D01*
X122805673Y-71666487D01*
X122594067Y-71637290D01*
X122347561Y-71633270D01*
X122231222Y-71681059D01*
X122246917Y-71792237D01*
X122396512Y-71978385D01*
X122681872Y-72251085D01*
X122694834Y-72262783D01*
X122939367Y-72486098D01*
X123062790Y-72625222D01*
X123067949Y-72711326D01*
X122957690Y-72775580D01*
X122748011Y-72844970D01*
X122658257Y-72916331D01*
X122653618Y-73076368D01*
X122669897Y-73162470D01*
X122725285Y-73447271D01*
X122774799Y-73744625D01*
X122820493Y-74052916D01*
X122200079Y-73882794D01*
X121877093Y-73805402D01*
X121651136Y-73774098D01*
X121553083Y-73793050D01*
X121552113Y-73795329D01*
X121482842Y-73926984D01*
X121416235Y-74026130D01*
X121361416Y-74076096D01*
X121290617Y-74068575D01*
X121184141Y-73986503D01*
X121022289Y-73812818D01*
X120785363Y-73530458D01*
X120643965Y-73357193D01*
X120388054Y-73052472D01*
X120168665Y-72810372D01*
X120007661Y-72653666D01*
X119926903Y-72605124D01*
X119923974Y-72607223D01*
X119868726Y-72713943D01*
X119773356Y-72935511D01*
X119656599Y-73228000D01*
X119632894Y-73289665D01*
X119500826Y-73592056D01*
X119320914Y-73946496D01*
X119114929Y-74316282D01*
X118904641Y-74664711D01*
X118711820Y-74955083D01*
X118558237Y-75150694D01*
X118496209Y-75205963D01*
X118496209Y-75390597D01*
X118728284Y-75105600D01*
X119120084Y-74531027D01*
X119463899Y-73936669D01*
X119715640Y-73395499D01*
X119833216Y-73111909D01*
X119931883Y-72902985D01*
X119993182Y-72807217D01*
X119998876Y-72804969D01*
X120067494Y-72869173D01*
X120217443Y-73041366D01*
X120426697Y-73295404D01*
X120673232Y-73605143D01*
X120676492Y-73609303D01*
X120977406Y-73985927D01*
X121192645Y-74235453D01*
X121334477Y-74368919D01*
X121415169Y-74397364D01*
X121446987Y-74331825D01*
X121448693Y-74304166D01*
X121498694Y-74155214D01*
X121565798Y-74047517D01*
X121669523Y-73954157D01*
X121816554Y-73939824D01*
X122007605Y-73978409D01*
X122268547Y-74043649D01*
X122609940Y-74129151D01*
X122885333Y-74198208D01*
X123415432Y-74277034D01*
X123839095Y-74227536D01*
X124149698Y-74058179D01*
X124340614Y-73777431D01*
X124405217Y-73393757D01*
X124336882Y-72915625D01*
X124201263Y-72516704D01*
X123997212Y-72020409D01*
X124245606Y-72070088D01*
X124408293Y-72096861D01*
X124475264Y-72071547D01*
X124452280Y-71963177D01*
X124345101Y-71740780D01*
X124317087Y-71685808D01*
X124233722Y-71523284D01*
X124195680Y-71408149D01*
X124222902Y-71314669D01*
X124335333Y-71217109D01*
X124552914Y-71089736D01*
X124895590Y-70906814D01*
X124938500Y-70883946D01*
X125210428Y-70731728D01*
X125412174Y-70605208D01*
X125507070Y-70527724D01*
X125510000Y-70520203D01*
X125440311Y-70456464D01*
G36*
X120390297Y-70447410D02*
X120297660Y-70348578D01*
X120172140Y-70241060D01*
X120089284Y-70260384D01*
X120001537Y-70372732D01*
X119916654Y-70520343D01*
X119946456Y-70625543D01*
X120015816Y-70698945D01*
X120134107Y-70790592D01*
X120229003Y-70759720D01*
X120311938Y-70674790D01*
X120410973Y-70544864D01*
X120390297Y-70447410D01*
X120390297Y-70447410D01*
G37*
X120390297Y-70447410D02*
X120297660Y-70348578D01*
X120172140Y-70241060D01*
X120089284Y-70260384D01*
X120001537Y-70372732D01*
X119916654Y-70520343D01*
X119946456Y-70625543D01*
X120015816Y-70698945D01*
X120134107Y-70790592D01*
X120229003Y-70759720D01*
X120311938Y-70674790D01*
X120410973Y-70544864D01*
X120390297Y-70447410D01*
G36*
X120026904Y-68231793D02*
X120006667Y-68229333D01*
X119924460Y-68293762D01*
X119922000Y-68314000D01*
X119986429Y-68396206D01*
X120006667Y-68398666D01*
X120088873Y-68334237D01*
X120091333Y-68314000D01*
X120026904Y-68231793D01*
X120026904Y-68231793D01*
G37*
X120026904Y-68231793D02*
X120006667Y-68229333D01*
X119924460Y-68293762D01*
X119922000Y-68314000D01*
X119986429Y-68396206D01*
X120006667Y-68398666D01*
X120088873Y-68334237D01*
X120091333Y-68314000D01*
X120026904Y-68231793D01*
G36*
X123174988Y-70901584D02*
X123045697Y-70709614D01*
X122862751Y-70464713D01*
X122837805Y-70432801D01*
X122610635Y-70162869D01*
X122445878Y-70018293D01*
X122319036Y-69979099D01*
X122287472Y-69984160D01*
X122150635Y-69992352D01*
X122148661Y-69908257D01*
X122282383Y-69728898D01*
X122391889Y-69611316D01*
X122554305Y-69427502D01*
X122609954Y-69296116D01*
X122579453Y-69158025D01*
X122563037Y-69120452D01*
X122411407Y-68947009D01*
X122201767Y-68916259D01*
X121967442Y-69028301D01*
X121869333Y-69118333D01*
X121682707Y-69285531D01*
X121571294Y-69316195D01*
X121544791Y-69209667D01*
X121557453Y-69139500D01*
X121551311Y-69002986D01*
X121461026Y-68827308D01*
X121269004Y-68582665D01*
X121147511Y-68445232D01*
X120692426Y-67941463D01*
X120511037Y-68105618D01*
X120335557Y-68282143D01*
X120262600Y-68430005D01*
X120298045Y-68586909D01*
X120447770Y-68790558D01*
X120652176Y-69010799D01*
X120896583Y-69245234D01*
X121096246Y-69399073D01*
X121220734Y-69449293D01*
X121229131Y-69447280D01*
X121359412Y-69442668D01*
X121390171Y-69533804D01*
X121313393Y-69673960D01*
X121274670Y-69712807D01*
X121138273Y-69917996D01*
X121119427Y-70138954D01*
X121205735Y-70324875D01*
X121384803Y-70424949D01*
X121449811Y-70430666D01*
X121608955Y-70371782D01*
X121740527Y-70263330D01*
X121888080Y-70155237D01*
X121994171Y-70163466D01*
X122014577Y-70277787D01*
X122000460Y-70323444D01*
X122026870Y-70441176D01*
X122132581Y-70644283D01*
X122287885Y-70888558D01*
X122463074Y-71129796D01*
X122628441Y-71323792D01*
X122734579Y-71415816D01*
X122838773Y-71395342D01*
X122992373Y-71291207D01*
X123138499Y-71151572D01*
X123220271Y-71024597D01*
X123224000Y-71001424D01*
X123174988Y-70901584D01*
X123174988Y-70901584D01*
G37*
X123174988Y-70901584D02*
X123045697Y-70709614D01*
X122862751Y-70464713D01*
X122837805Y-70432801D01*
X122610635Y-70162869D01*
X122445878Y-70018293D01*
X122319036Y-69979099D01*
X122287472Y-69984160D01*
X122150635Y-69992352D01*
X122148661Y-69908257D01*
X122282383Y-69728898D01*
X122391889Y-69611316D01*
X122554305Y-69427502D01*
X122609954Y-69296116D01*
X122579453Y-69158025D01*
X122563037Y-69120452D01*
X122411407Y-68947009D01*
X122201767Y-68916259D01*
X121967442Y-69028301D01*
X121869333Y-69118333D01*
X121682707Y-69285531D01*
X121571294Y-69316195D01*
X121544791Y-69209667D01*
X121557453Y-69139500D01*
X121551311Y-69002986D01*
X121461026Y-68827308D01*
X121269004Y-68582665D01*
X121147511Y-68445232D01*
X120692426Y-67941463D01*
X120511037Y-68105618D01*
X120335557Y-68282143D01*
X120262600Y-68430005D01*
X120298045Y-68586909D01*
X120447770Y-68790558D01*
X120652176Y-69010799D01*
X120896583Y-69245234D01*
X121096246Y-69399073D01*
X121220734Y-69449293D01*
X121229131Y-69447280D01*
X121359412Y-69442668D01*
X121390171Y-69533804D01*
X121313393Y-69673960D01*
X121274670Y-69712807D01*
X121138273Y-69917996D01*
X121119427Y-70138954D01*
X121205735Y-70324875D01*
X121384803Y-70424949D01*
X121449811Y-70430666D01*
X121608955Y-70371782D01*
X121740527Y-70263330D01*
X121888080Y-70155237D01*
X121994171Y-70163466D01*
X122014577Y-70277787D01*
X122000460Y-70323444D01*
X122026870Y-70441176D01*
X122132581Y-70644283D01*
X122287885Y-70888558D01*
X122463074Y-71129796D01*
X122628441Y-71323792D01*
X122734579Y-71415816D01*
X122838773Y-71395342D01*
X122992373Y-71291207D01*
X123138499Y-71151572D01*
X123220271Y-71024597D01*
X123224000Y-71001424D01*
X123174988Y-70901584D01*
G36*
X120729994Y-70057743D02*
X120615785Y-70081832D01*
X120553359Y-70158248D01*
X120630122Y-70251751D01*
X120751640Y-70309188D01*
X120813019Y-70258067D01*
X120824986Y-70128935D01*
X120729994Y-70057743D01*
X120729994Y-70057743D01*
G37*
X120729994Y-70057743D02*
X120615785Y-70081832D01*
X120553359Y-70158248D01*
X120630122Y-70251751D01*
X120751640Y-70309188D01*
X120813019Y-70258067D01*
X120824986Y-70128935D01*
X120729994Y-70057743D01*
G36*
X121090906Y-70651140D02*
X121049432Y-70610678D01*
X120928732Y-70536786D01*
X120818753Y-70600404D01*
X120808520Y-70610678D01*
X120737393Y-70731013D01*
X120799313Y-70868339D01*
X120803766Y-70874378D01*
X120896740Y-70974880D01*
X120979525Y-70943593D01*
X121044678Y-70874378D01*
X121130922Y-70748284D01*
X121090906Y-70651140D01*
X121090906Y-70651140D01*
G37*
X121090906Y-70651140D02*
X121049432Y-70610678D01*
X120928732Y-70536786D01*
X120818753Y-70600404D01*
X120808520Y-70610678D01*
X120737393Y-70731013D01*
X120799313Y-70868339D01*
X120803766Y-70874378D01*
X120896740Y-70974880D01*
X120979525Y-70943593D01*
X121044678Y-70874378D01*
X121130922Y-70748284D01*
X121090906Y-70651140D01*
D12*
X109509523Y-86152381D02*
X109509523Y-86866667D01*
X109557143Y-87009524D01*
X109652381Y-87104762D01*
X109795238Y-87152381D01*
X109890476Y-87152381D01*
X108509523Y-87152381D02*
X109080952Y-87152381D01*
X108795238Y-87152381D02*
X108795238Y-86152381D01*
X108890476Y-86295238D01*
X108985714Y-86390476D01*
X109080952Y-86438095D01*
X107557142Y-87152381D02*
X108128571Y-87152381D01*
X107842857Y-87152381D02*
X107842857Y-86152381D01*
X107938095Y-86295238D01*
X108033333Y-86390476D01*
X108128571Y-86438095D01*
M02*
