M48
;DRILL file {KiCad 4.0.7-e2-6376~58~ubuntu16.04.1} date Thu Mar 22 01:15:57 2018
;FORMAT={-:-/ absolute / inch / decimal}
FMAT,2
INCH,TZ
T1C0.012
T2C0.016
T3C0.039
T4C0.040
T5C0.125
%
G90
G05
M72
T1
X4.5472Y-2.8346
X4.5472Y-2.874
X4.5768Y-2.8543
X4.6063Y-2.8346
X4.6063Y-2.874
T2
X4.252Y-3.2756
X4.3307Y-2.9134
X4.3307Y-3.1102
X4.5276Y-3.1102
X4.5472Y-2.6732
X4.563Y-2.7608
X4.6457Y-2.9134
X4.7244Y-4.4094
X4.7638Y-4.3701
X4.7638Y-4.4094
X4.7638Y-4.4488
X4.8031Y-4.4094
X5.3543Y-4.4094
X5.3937Y-4.3701
X5.3937Y-4.4094
X5.3937Y-4.4488
X5.4331Y-4.4094
T3
X4.311Y-3.5433
X4.4094Y-3.5433
X4.4685Y-4.1732
X4.4685Y-4.5669
X4.5079Y-3.5433
X4.5669Y-4.1732
X4.5669Y-4.5669
X4.6654Y-4.1732
X4.6654Y-4.5669
T4
X7.4091Y-1.965
X7.4091Y-2.065
X7.4091Y-2.165
X7.4091Y-2.265
X7.4091Y-2.365
X7.4091Y-2.465
X7.4091Y-2.565
X7.4091Y-2.665
X7.4091Y-2.765
X7.4091Y-2.865
X7.4091Y-2.965
X7.4091Y-3.065
X7.4091Y-3.165
X7.4091Y-3.265
X7.4091Y-3.365
X7.4091Y-3.465
X7.4091Y-3.565
X7.4091Y-3.665
X7.4091Y-3.765
X7.4091Y-3.865
X7.4091Y-3.965
X7.4091Y-4.065
X7.4091Y-4.165
X7.4091Y-4.265
X7.4091Y-4.365
X7.4091Y-4.465
X7.4091Y-4.565
X7.4091Y-4.665
X7.4091Y-4.765
X7.4091Y-4.865
X7.4091Y-4.965
X7.4091Y-5.065
X7.5091Y-1.965
X7.5091Y-2.065
X7.5091Y-2.165
X7.5091Y-2.265
X7.5091Y-2.365
X7.5091Y-2.465
X7.5091Y-2.565
X7.5091Y-2.665
X7.5091Y-2.765
X7.5091Y-2.865
X7.5091Y-2.965
X7.5091Y-3.065
X7.5091Y-3.165
X7.5091Y-3.265
X7.5091Y-3.365
X7.5091Y-3.465
X7.5091Y-3.565
X7.5091Y-3.665
X7.5091Y-3.765
X7.5091Y-3.865
X7.5091Y-3.965
X7.5091Y-4.065
X7.5091Y-4.165
X7.5091Y-4.265
X7.5091Y-4.365
X7.5091Y-4.465
X7.5091Y-4.565
X7.5091Y-4.665
X7.5091Y-4.765
X7.5091Y-4.865
X7.5091Y-4.965
X7.5091Y-5.065
T5
X4.3339Y-2.065
X4.3339Y-4.965
X7.7091Y-1.965
X7.7091Y-5.115
T0
M30
