G04 #@! TF.FileFunction,Soldermask,Bot*
%FSLAX46Y46*%
G04 Gerber Fmt 4.6, Leading zero omitted, Abs format (unit mm)*
G04 Created by KiCad (PCBNEW 4.0.7-e2-6376~58~ubuntu16.04.1) date Thu Mar 22 01:15:54 2018*
%MOMM*%
%LPD*%
G01*
G04 APERTURE LIST*
%ADD10C,0.100000*%
%ADD11C,1.600000*%
%ADD12C,0.300000*%
%ADD13C,5.000000*%
%ADD14C,4.500000*%
%ADD15C,3.300000*%
%ADD16C,6.350000*%
%ADD17C,1.720000*%
G04 APERTURE END LIST*
D10*
D11*
X118500000Y-106000000D03*
X113500000Y-106000000D03*
X116000000Y-106000000D03*
D12*
X115500000Y-73000000D03*
X115500000Y-72000000D03*
X117000000Y-72000000D03*
X117000000Y-73000000D03*
X116250000Y-72500000D03*
D13*
X153000000Y-90000000D03*
D14*
X177000000Y-117600000D03*
X161000000Y-62400000D03*
D15*
X161000000Y-125820000D03*
D16*
X195810000Y-129920000D03*
X195810000Y-49910000D03*
X110080000Y-52450000D03*
X110080000Y-126110000D03*
D17*
X188190000Y-49910000D03*
X188190000Y-52450000D03*
X188190000Y-54990000D03*
X188190000Y-57530000D03*
X188190000Y-60070000D03*
X188190000Y-62610000D03*
X188190000Y-65150000D03*
X188190000Y-67690000D03*
X188190000Y-70230000D03*
X188190000Y-72770000D03*
X188190000Y-75310000D03*
X188190000Y-77850000D03*
X188190000Y-80390000D03*
X188190000Y-82930000D03*
X188190000Y-85470000D03*
X188190000Y-88010000D03*
X188190000Y-90550000D03*
X188190000Y-93090000D03*
X188190000Y-95630000D03*
X188190000Y-98170000D03*
X188190000Y-100710000D03*
X188190000Y-103250000D03*
X188190000Y-105790000D03*
X188190000Y-108330000D03*
X188190000Y-110870000D03*
X188190000Y-113410000D03*
X188190000Y-115950000D03*
X188190000Y-118490000D03*
X188190000Y-121030000D03*
X188190000Y-123570000D03*
X188190000Y-126110000D03*
X188190000Y-128650000D03*
X190730000Y-49910000D03*
X190730000Y-52450000D03*
X190730000Y-54990000D03*
X190730000Y-57530000D03*
X190730000Y-60070000D03*
X190730000Y-62610000D03*
X190730000Y-65150000D03*
X190730000Y-67690000D03*
X190730000Y-70230000D03*
X190730000Y-72770000D03*
X190730000Y-75310000D03*
X190730000Y-77850000D03*
X190730000Y-80390000D03*
X190730000Y-82930000D03*
X190730000Y-85470000D03*
X190730000Y-88010000D03*
X190730000Y-90550000D03*
X190730000Y-93090000D03*
X190730000Y-95630000D03*
X190730000Y-98170000D03*
X190730000Y-100710000D03*
X190730000Y-103250000D03*
X190730000Y-105790000D03*
X190730000Y-108330000D03*
X190730000Y-110870000D03*
X190730000Y-113410000D03*
X190730000Y-115950000D03*
X190730000Y-118490000D03*
X190730000Y-121030000D03*
X190730000Y-123570000D03*
X190730000Y-126110000D03*
X190730000Y-128650000D03*
D14*
X129000000Y-62400000D03*
X145000000Y-117600000D03*
D15*
X145000000Y-54180000D03*
D13*
X121000000Y-90000000D03*
X183000000Y-90000000D03*
D11*
X109500000Y-90000000D03*
X114500000Y-90000000D03*
X112000000Y-90000000D03*
X113500000Y-116000000D03*
X118500000Y-116000000D03*
X116000000Y-116000000D03*
M02*
